<?xml version="1.0" standalone="no"?>
<!DOCTYPE svg PUBLIC "-//W3C//DTD SVG 20010904//EN"
 "http://www.w3.org/TR/2001/REC-SVG-20010904/DTD/svg10.dtd">
<svg version="1.0" xmlns="http://www.w3.org/2000/svg"
 width="851.000000pt" height="1081.000000pt" viewBox="0 0 851.000000 1081.000000"
 preserveAspectRatio="xMidYMid meet">

<g transform="translate(0.000000,1081.000000) scale(0.100000,-0.100000)"
fill="#000000" stroke="none">
<path d="M3794 10780 c-152 -21 -258 -67 -448 -194 -153 -102 -228 -163 -297
-241 -24 -27 -69 -77 -99 -111 -62 -68 -146 -184 -133 -184 5 0 16 12 25 28
17 29 60 80 120 146 21 23 38 44 38 47 0 4 8 10 17 13 16 6 16 6 0 -12 -9 -10
-17 -22 -17 -27 0 -4 -16 -26 -36 -49 -19 -22 -39 -46 -43 -52 -18 -23 -41
-74 -41 -91 0 -10 -14 -35 -30 -57 -38 -50 -88 -178 -72 -184 7 -2 12 -8 12
-14 0 -6 -6 -8 -14 -5 -8 3 -17 1 -20 -6 -10 -24 4 91 14 118 6 15 9 30 6 32
-6 7 -60 -89 -84 -152 -62 -159 -63 -163 -57 -124 9 57 101 277 126 299 3 3
15 23 28 45 l23 40 -32 -35 c-38 -42 -99 -167 -142 -293 -30 -85 -32 -102 -32
-217 0 -86 5 -137 15 -163 14 -37 15 -35 11 61 -4 99 10 224 29 252 6 10 8 -4
4 -45 -11 -114 -12 -140 -4 -223 8 -80 59 -257 81 -277 7 -7 8 -2 4 15 -6 21
-5 22 4 7 6 -9 8 -21 5 -27 -3 -5 6 -29 21 -52 31 -48 185 -230 191 -225 2 2
-22 44 -52 93 -89 141 -144 265 -159 359 -4 27 5 10 27 -50 19 -49 48 -117 64
-150 66 -129 200 -281 362 -410 55 -44 100 -84 100 -90 0 -11 -20 -24 -188
-125 -57 -34 -188 -119 -290 -187 -286 -193 -351 -232 -566 -343 -171 -88
-319 -166 -375 -200 -8 -5 -53 -27 -100 -49 -47 -22 -116 -65 -155 -96 -189
-151 -352 -424 -401 -670 -17 -85 -20 -93 -70 -145 -54 -58 -74 -101 -93 -205
-14 -75 -34 -105 -164 -242 -126 -134 -167 -190 -287 -398 -51 -88 -99 -167
-106 -175 -7 -8 -48 -82 -92 -165 -43 -82 -93 -172 -110 -200 -32 -52 -147
-279 -225 -445 -25 -53 -47 -116 -51 -140 -7 -54 18 -277 38 -340 12 -40 156
-322 217 -425 18 -31 115 -152 149 -185 3 -3 30 -34 60 -70 30 -35 62 -71 70
-80 264 -282 412 -469 530 -674 92 -159 133 -253 201 -451 33 -99 83 -229 109
-290 35 -81 55 -146 75 -246 26 -132 30 -175 34 -329 2 -70 3 -73 16 -50 33
62 73 311 75 480 1 39 4 49 10 35 4 -11 25 -60 45 -110 113 -273 120 -294 106
-328 -7 -18 -19 -65 -27 -105 -7 -41 -22 -88 -33 -105 -10 -18 -47 -79 -80
-137 -34 -58 -67 -114 -74 -125 -7 -11 -27 -43 -44 -72 -18 -29 -46 -79 -63
-110 -17 -32 -53 -95 -79 -139 -27 -45 -62 -106 -78 -135 -16 -30 -60 -108
-98 -174 -37 -66 -110 -201 -160 -300 -51 -99 -104 -202 -119 -229 -29 -55
-34 -96 -11 -96 8 0 15 8 15 18 0 20 11 33 88 105 28 26 56 56 62 67 6 10 16
17 23 14 7 -2 37 18 67 46 30 27 58 50 62 50 4 0 15 14 25 30 20 35 33 39 33
9 0 -24 -78 -129 -114 -153 -14 -9 -33 -32 -41 -52 -8 -20 -28 -56 -45 -80
-16 -25 -30 -47 -30 -50 0 -2 299 -4 664 -4 659 0 665 0 663 20 -1 11 -5 20
-11 20 -10 0 -22 14 -76 92 -22 31 -40 64 -40 72 0 9 -4 16 -10 16 -5 0 -16
17 -25 38 -47 106 -45 102 -33 122 10 16 10 24 0 40 -6 11 -12 27 -12 35 0 8
-7 15 -15 15 -8 0 -15 -9 -15 -20 0 -11 -4 -20 -10 -20 -13 0 -13 37 0 45 16
10 11 52 -7 59 -12 5 -14 9 -5 18 21 21 13 37 -20 40 -25 2 -34 8 -36 26 -2
12 -8 22 -13 22 -6 0 -9 19 -7 42 3 38 6 43 28 43 22 0 25 -4 25 -38 0 -20 3
-37 8 -37 4 0 9 0 12 0 3 0 7 71 10 158 8 250 15 332 30 332 10 0 16 26 21 90
5 64 10 90 20 90 7 0 15 8 17 18 2 9 3 7 2 -6 -2 -20 2 -22 41 -22 l44 0 0 40
c0 22 5 40 10 40 6 0 10 9 10 19 0 11 -4 23 -10 26 -11 7 -13 77 -4 112 4 13
11 20 19 16 10 -3 15 7 17 39 3 42 4 43 40 46 35 3 37 5 40 40 3 32 7 37 29
40 15 2 35 12 45 23 25 28 46 25 42 -8 -2 -14 2 -28 7 -30 18 -6 45 103 45
177 0 38 4 72 10 75 5 3 10 17 10 30 0 13 4 27 10 30 5 3 10 14 10 23 0 10 9
23 20 30 11 7 20 21 20 31 0 10 7 22 16 25 8 3 12 11 9 16 -4 6 -1 9 7 8 8 -2
12 4 10 15 -2 11 4 27 14 38 12 13 15 28 10 50 -5 25 -2 35 13 46 11 7 27 27
35 45 18 34 22 128 6 128 -17 0 -11 22 8 27 23 6 47 42 35 54 -11 11 -73 0
-73 -13 0 -5 -24 -7 -52 -4 -42 4 -46 3 -18 -3 l35 -8 -42 -2 c-23 0 -45 4
-48 10 -7 11 22 49 37 49 6 0 21 9 35 20 32 25 92 37 103 20 12 -19 70 -3 70
20 0 22 32 42 75 47 34 4 55 20 34 27 -8 2 -36 7 -64 10 -27 4 -53 10 -58 15
-5 5 -26 6 -48 4 -31 -5 -39 -2 -39 10 0 22 7 25 123 54 56 13 103 26 105 27
1 2 -8 22 -20 45 -13 25 -27 40 -35 37 -18 -7 -43 4 -43 19 0 19 24 26 125 35
84 9 109 6 190 -18 11 -3 115 -8 230 -9 206 -4 212 -3 244 19 64 44 87 121 57
193 -10 24 -30 43 -65 62 -55 30 -60 46 -18 51 34 4 36 22 3 22 -14 0 -27 4
-30 9 -3 5 -23 11 -43 14 -62 9 -97 21 -126 43 -37 30 -34 44 11 45 33 0 35 1
13 10 -13 5 -36 18 -51 29 -15 11 -33 20 -40 20 -6 0 -23 9 -37 20 -14 11 -35
20 -46 20 -11 0 -36 12 -56 28 -39 29 -78 52 -92 52 -4 0 -25 16 -46 35 -21
19 -45 35 -53 35 -50 1 -58 59 -15 100 21 20 26 21 51 8 15 -7 29 -22 30 -32
4 -32 34 -53 139 -96 82 -34 213 -81 235 -84 3 -1 25 -8 50 -17 93 -33 110
-37 110 -29 0 5 -7 15 -15 22 -9 7 -21 19 -28 26 -47 53 -76 80 -80 76 -2 -2
-10 3 -18 12 -13 16 -11 17 16 10 17 -5 56 -12 88 -16 31 -5 81 -20 110 -33
142 -67 197 -87 197 -73 0 4 -16 14 -35 22 -19 8 -35 19 -35 24 0 6 -6 10 -12
10 -7 0 -24 9 -38 20 -14 11 -33 20 -42 20 -10 0 -18 4 -18 8 0 5 -21 18 -47
31 -83 39 -123 62 -123 70 0 9 140 -13 185 -29 60 -20 65 -22 65 -30 0 -4 20
-11 45 -14 24 -4 47 -11 50 -15 2 -5 23 -11 45 -15 22 -3 40 -11 40 -16 0 -6
7 -10 15 -10 18 0 19 4 3 30 -18 28 0 53 45 64 44 11 47 23 10 37 -16 7 -37
15 -48 19 -11 5 -45 11 -75 14 -103 11 -160 41 -160 83 0 25 1 25 53 19 145
-20 357 -17 357 4 0 9 -81 19 -148 19 -77 0 -142 32 -94 47 9 3 25 10 35 15
11 6 38 10 60 10 59 0 198 37 212 56 7 10 17 13 25 8 8 -5 11 -4 6 3 -3 6 2
15 11 21 14 8 6 10 -35 11 -52 0 -182 16 -211 26 -9 3 -11 8 -5 14 6 6 147 10
336 10 213 1 354 6 406 14 45 7 85 10 91 7 13 -8 21 -136 21 -306 -1 -166 -2
-144 4 -265 3 -61 14 -136 26 -180 37 -130 49 -294 35 -462 -5 -55 -4 -92 2
-100 6 -7 16 -38 24 -68 7 -30 16 -59 20 -65 4 -5 15 -43 24 -82 18 -72 17
-74 -14 -315 -17 -134 -35 -270 -40 -303 -5 -33 -14 -107 -21 -165 -6 -58 -15
-130 -20 -160 -5 -30 -17 -104 -25 -165 -9 -60 -25 -159 -35 -220 -10 -60 -23
-139 -28 -175 -5 -36 -17 -91 -26 -123 -9 -32 -16 -68 -15 -80 1 -33 37 72 38
111 1 17 5 32 9 32 15 0 112 -109 219 -245 56 -72 166 -195 244 -275 78 -80
159 -164 180 -188 33 -36 117 -112 229 -205 14 -11 54 -47 89 -79 l64 -58 93
0 94 0 -31 83 c-35 94 -112 313 -224 632 -42 121 -85 238 -95 260 -10 22 -34
83 -55 135 -20 52 -42 109 -50 125 -7 17 -34 89 -59 160 -38 109 -86 240 -150
410 -6 17 -14 35 -18 41 -9 14 -98 250 -110 294 -6 19 -20 55 -33 80 -21 41
-104 269 -127 349 -5 19 -20 57 -32 85 -74 166 -86 216 -92 384 -3 75 -9 164
-15 197 -6 33 -15 83 -20 110 -21 117 -24 173 -22 414 1 246 17 428 34 400 12
-20 141 -13 218 12 80 26 211 87 211 98 0 4 10 12 23 18 38 18 115 92 120 116
3 19 6 16 22 -18 24 -56 22 -137 -7 -175 -29 -40 -32 -125 -4 -125 11 0 23
-10 27 -24 8 -19 6 -22 -8 -17 -16 6 -16 6 0 -12 9 -10 17 -27 17 -38 0 -31
85 -193 122 -233 45 -48 84 -130 102 -216 30 -143 67 -206 190 -324 37 -35 81
-84 98 -108 34 -51 46 -51 25 -2 -14 34 -94 122 -153 169 -16 14 -40 42 -52
62 -25 41 -72 172 -72 200 0 11 -10 38 -21 61 -12 23 -33 65 -46 92 -14 28
-38 66 -54 86 -16 20 -29 41 -29 45 0 5 -16 34 -35 65 -49 80 -69 189 -61 331
6 98 4 113 -20 185 l-26 78 15 126 c17 133 18 135 105 280 34 57 72 165 72
206 0 13 -7 46 -16 72 -13 41 -14 66 -4 177 6 71 15 174 19 229 4 55 12 116
18 135 6 19 19 71 28 115 9 44 28 118 42 165 14 47 36 139 49 205 40 200 50
230 139 433 l15 32 52 -34 c120 -78 198 -46 198 82 0 52 -31 109 -113 205 -36
43 -39 51 -58 181 l-20 137 41 129 c38 118 60 154 60 98 0 -17 29 -193 45
-273 2 -11 17 -39 32 -62 24 -38 38 -47 133 -84 58 -23 109 -45 114 -50 21
-19 66 -7 160 42 54 28 100 48 104 45 3 -4 8 -39 11 -79 l6 -72 23 53 c12 29
29 80 36 115 l13 62 31 -65 c44 -91 72 -208 72 -301 0 -43 4 -80 9 -83 8 -6
52 97 79 184 16 52 39 209 53 350 12 134 18 155 31 124 8 -18 8 -18 4 1 -2 11
-22 79 -44 150 -57 181 -70 253 -88 464 -8 101 -19 191 -23 200 -5 9 -11 35
-15 59 -3 24 -10 51 -15 60 -5 9 -23 47 -41 85 -46 96 -141 183 -263 241 -131
63 -226 76 -367 50 -19 -3 -16 0 10 12 21 10 75 18 132 22 183 10 293 -32 418
-158 60 -60 75 -82 77 -108 1 -18 9 -45 17 -60 25 -45 75 -203 86 -272 16 -95
59 -238 86 -290 13 -25 24 -51 24 -58 0 -7 4 -11 8 -8 5 3 21 -18 36 -47 15
-29 40 -70 56 -92 16 -22 48 -71 71 -110 23 -38 62 -100 86 -137 25 -37 46
-80 48 -95 9 -104 19 -167 37 -232 23 -87 56 -166 65 -158 3 4 1 12 -5 19 -26
33 -83 310 -70 348 6 18 105 -122 144 -204 25 -51 35 -65 40 -52 10 27 -2 202
-20 296 -28 141 -67 330 -87 420 -27 125 -27 416 1 540 41 185 85 247 315 450
61 53 164 153 231 222 105 109 128 139 172 226 66 127 121 314 129 437 3 50
11 101 18 115 18 37 26 145 15 196 -14 63 -40 98 -183 244 -146 150 -183 170
-315 170 -42 0 -94 5 -114 10 -34 10 -169 -3 -263 -23 -40 -9 -172 -26 -245
-31 -79 -6 -306 -64 -450 -114 -47 -16 -125 -42 -175 -57 -49 -16 -94 -31
-100 -35 -5 -4 -30 -15 -55 -24 -50 -20 -437 -222 -509 -267 -34 -20 -66 -30
-116 -35 -48 -5 -82 -15 -110 -32 -33 -21 -57 -26 -150 -32 -190 -13 -407 -71
-543 -145 -34 -19 -66 -35 -70 -35 -4 0 -8 65 -9 144 -2 223 -17 347 -61 491
-19 64 -83 192 -112 225 l-22 25 20 -35 c52 -92 65 -117 82 -164 24 -67 43
-152 38 -168 -3 -7 -13 12 -23 42 -10 30 -21 57 -24 60 -3 3 -17 28 -31 55
-41 83 -80 136 -154 213 -38 39 -66 72 -62 72 8 0 14 -5 85 -74 28 -27 51 -44
51 -38 0 22 -148 160 -184 172 -38 12 -48 30 -18 31 12 0 10 3 -8 12 -14 6
-30 18 -36 26 -8 10 -15 11 -32 2 -30 -16 -32 -14 -25 21 6 28 4 31 -15 26
-12 -4 -26 0 -33 8 -6 8 -17 14 -24 14 -8 0 -16 6 -18 13 -4 9 -6 9 -6 -1 -1
-8 -13 -4 -34 12 -19 15 -38 26 -43 26 -5 0 -2 -4 6 -10 8 -5 12 -12 8 -15 -3
-3 -29 8 -57 24 -28 17 -72 37 -98 45 -32 10 -40 15 -24 15 26 1 22 13 -7 18
-42 9 -363 11 -418 3z m660 -308 c2 -4 -12 -13 -32 -19 l-36 -11 24 19 c28 20
36 23 44 11z m106 -2 c-20 -13 -50 -13 -50 0 0 6 15 10 33 10 24 0 28 -3 17
-10z m141 -7 c13 -16 12 -17 -3 -4 -10 7 -18 15 -18 17 0 8 8 3 21 -13z
m-1511 -17 c0 -2 -8 -10 -17 -17 -16 -13 -17 -12 -4 4 13 16 21 21 21 13z
m1335 -12 c9 -9 14 -18 11 -21 -6 -6 -46 20 -46 29 0 13 18 9 35 -8z m-1407
-54 c-7 -10 -14 -17 -17 -15 -4 4 18 35 25 35 2 0 -1 -9 -8 -20z m1732 -118
c17 -38 8 -34 -24 10 -23 32 -25 37 -8 27 11 -7 26 -24 32 -37z m3245 0 c54
-27 139 -105 187 -170 22 -30 38 -55 36 -57 -9 -8 -143 67 -166 93 -16 18 -48
37 -80 47 -50 16 -62 16 -190 0 -75 -9 -141 -21 -146 -26 -6 -5 -23 -9 -39 -9
-35 0 -401 -122 -471 -157 -26 -13 -66 -38 -89 -54 -22 -16 -45 -29 -50 -29
-21 0 58 70 107 97 28 14 62 32 76 40 14 7 36 13 49 13 13 0 21 3 18 7 -12 12
55 44 182 87 69 24 140 48 156 54 52 18 124 32 165 32 48 0 53 15 9 24 -91 18
-322 -21 -469 -80 -51 -20 -141 -73 -152 -88 -4 -6 -10 -7 -14 -3 -14 14 71
89 131 117 40 18 93 31 160 40 55 7 118 18 140 26 68 22 75 23 245 20 143 -3
171 -6 205 -24z m-3201 -72 c-6 -5 -24 21 -24 34 0 6 6 1 14 -10 8 -10 12 -21
10 -24z m2256 2 c0 -10 -105 -59 -166 -78 -23 -7 -59 -21 -80 -32 -22 -11 -85
-32 -141 -46 -56 -14 -133 -41 -171 -61 -38 -19 -100 -46 -138 -60 l-69 -25
29 24 c43 36 134 78 286 131 74 26 152 56 173 67 22 11 62 27 90 35 48 14 179
51 185 52 1 1 2 -3 2 -7z m930 -47 c0 -16 -20 -19 -71 -8 -33 7 -33 7 -9 14
45 13 80 10 80 -6z m-3155 -5 c3 -5 1 -10 -4 -10 -6 0 -11 5 -11 10 0 6 2 10
4 10 3 0 8 -4 11 -10z m45 -99 c0 -12 -28 36 -34 59 -4 14 2 8 14 -14 11 -22
20 -42 20 -45z m-904 -106 c-15 -25 -25 -49 -22 -54 5 -8 -61 -141 -70 -141
-2 0 3 17 12 38 26 60 28 68 11 47 -43 -53 -5 25 62 129 33 52 39 36 7 -19z
m-126 -35 c-17 -34 -33 -60 -36 -58 -2 3 11 32 28 66 18 34 34 60 36 58 2 -2
-11 -32 -28 -66z m-177 5 c-3 -9 -8 -14 -10 -11 -3 3 -2 9 2 15 9 16 15 13 8
-4z m860 -155 c4 -27 3 -37 -2 -25 -4 11 -11 40 -14 65 -4 27 -3 37 2 25 4
-11 11 -40 14 -65z m3823 -3 c-14 -59 -22 -77 -37 -77 -15 0 -10 35 11 84 27
63 41 59 26 -7z m-2426 -64 c36 -12 -72 -29 -159 -24 -23 1 -23 2 -7 20 26 29
88 30 166 4z m-1751 -75 c-12 -29 -24 -59 -27 -67 -4 -10 -1 -12 7 -7 7 5 16
18 21 30 16 40 12 -27 -5 -75 -21 -59 -35 -72 -133 -125 -138 -74 -143 -74
-75 3 76 88 119 144 168 218 35 52 53 74 62 75 2 0 -7 -24 -18 -52z m1569 7
c62 -19 67 -35 12 -35 -23 0 -53 -6 -68 -14 -34 -18 -85 -24 -242 -31 -69 -3
-161 -10 -205 -16 -44 -6 -92 -12 -107 -14 -35 -4 -35 -1 1 25 28 20 211 71
316 89 86 15 237 12 293 -4z m-1430 -50 c-3 -30 -3 -55 -2 -55 2 0 15 21 28
48 17 32 25 41 26 27 1 -11 5 -65 9 -120 8 -93 1 -199 -15 -253 -12 -40 19
-15 54 43 18 30 36 55 39 55 7 0 -4 -157 -12 -170 -3 -5 -8 -28 -11 -52 -6
-52 -34 -148 -47 -165 -6 -8 -6 -13 0 -13 12 0 54 45 87 95 33 50 33 33 1 -47
-24 -60 -28 -91 -5 -49 6 12 15 21 20 21 16 0 12 -26 -6 -41 -9 -7 -14 -22
-11 -36 2 -12 1 -20 -3 -18 -4 2 -14 -12 -24 -31 -9 -20 -12 -33 -6 -29 5 3
10 0 10 -7 0 -7 14 2 31 20 17 19 33 32 35 29 3 -2 0 -26 -6 -52 -12 -56 -8
-65 20 -40 24 22 25 14 5 -26 -32 -60 -95 -129 -250 -272 -154 -142 -213 -187
-286 -218 -101 -44 -261 -26 -276 32 -3 10 -9 19 -14 19 -5 0 -9 6 -9 14 0 8
-13 28 -30 46 -16 18 -30 37 -30 43 0 5 -10 24 -23 41 -13 17 -27 38 -32 46
-6 12 -5 13 6 3 24 -23 42 -16 35 15 -3 15 -3 21 0 14 3 -7 15 -17 26 -23 18
-10 20 -9 15 5 -5 14 -3 15 13 6 10 -6 23 -17 27 -24 4 -8 24 -17 43 -21 28
-5 42 -2 60 13 l24 20 -42 7 c-51 8 -57 17 -34 43 13 15 43 24 124 36 77 11
125 24 168 46 74 37 80 58 8 25 -47 -21 -69 -24 -198 -26 -152 -2 -190 3 -190
27 0 9 -11 14 -34 14 -19 0 -38 5 -41 10 -3 6 4 10 16 10 21 0 21 0 -5 34 -27
36 -37 71 -14 48 7 -7 28 -12 48 -12 19 0 51 -4 70 -10 31 -9 37 -7 58 15 12
14 33 25 45 25 12 0 31 7 41 15 34 26 -8 30 -81 8 -69 -21 -113 -20 -113 3 0
7 -8 17 -17 23 -16 9 -16 13 0 83 10 40 17 97 17 126 0 28 4 52 9 52 5 0 13 9
16 20 9 28 140 226 157 236 13 8 3 -8 -48 -85 -29 -42 -23 -53 11 -21 25 23
25 23 40 4 8 -10 15 -23 15 -27 0 -5 16 -6 35 -3 21 4 35 2 35 -5 0 -5 8 -9
18 -8 40 4 62 -2 62 -16 0 -22 68 -19 151 6 81 25 125 64 141 127 6 23 14 45
19 48 5 3 9 16 9 30 l0 25 -26 -20 c-21 -17 -41 -21 -97 -21 -81 0 -80 5 13
73 57 43 54 61 -6 32 -20 -9 -37 -15 -38 -13 -2 1 24 39 57 83 46 62 58 73 53
50 -7 -29 -7 -29 8 -10 8 11 16 28 16 38 0 9 3 17 6 17 4 0 4 -25 2 -55z
m-1783 -10 c-4 -25 -9 -44 -12 -41 -2 2 -1 25 2 51 4 25 9 44 12 41 2 -2 1
-25 -2 -51z m2369 21 c17 -36 36 -123 36 -160 -1 -41 -39 47 -40 91 0 23 -4
45 -10 48 -14 9 -58 -23 -87 -64 l-25 -36 6 68 c3 37 8 72 11 77 4 6 26 10 49
10 40 0 45 -3 60 -34z m3402 -132 c-20 -105 -29 -127 -116 -289 -69 -130 -82
-148 -186 -252 -62 -62 -119 -113 -126 -113 -9 1 -7 5 5 14 9 7 17 18 17 24 0
6 6 17 14 24 7 8 21 29 31 47 9 18 37 60 61 94 25 33 61 90 82 126 20 36 52
91 72 121 19 31 62 109 94 173 32 65 61 116 63 113 2 -2 -3 -39 -11 -82z
m-3422 0 c19 -37 26 -68 26 -107 0 -56 -4 -64 -88 -176 -33 -44 -10 -38 27 6
l31 37 -10 -34 c-5 -19 -23 -53 -39 -75 -15 -22 -40 -63 -54 -92 -15 -28 -37
-59 -49 -67 -23 -17 -64 -21 -71 -8 -3 4 5 36 16 71 18 59 55 111 79 111 5 0
6 5 2 11 -4 7 9 25 31 43 26 23 38 40 38 59 0 15 3 30 8 33 11 6 1 32 -28 72
-25 33 -26 82 -2 82 6 0 7 4 4 10 -8 13 35 94 45 84 5 -5 20 -32 34 -60z m179
12 c4 -10 -6 -16 -35 -20 -46 -8 -51 -5 -42 18 8 20 69 22 77 2z m-2466 -128
c-3 -8 -6 -5 -6 6 -1 11 2 17 5 13 3 -3 4 -12 1 -19z m27 -88 c5 -24 4 -30 -3
-20 -5 8 -12 33 -15 55 -8 48 8 19 18 -35z m1646 41 c0 -14 -61 -62 -97 -78
-18 -7 -64 -13 -102 -13 -79 0 -88 15 -24 45 32 15 36 15 52 1 38 -34 85 -16
117 45 12 25 18 28 34 19 11 -6 20 -15 20 -19z m-80 -11 c0 -5 -4 -10 -10 -10
-5 0 -10 5 -10 10 0 6 5 10 10 10 6 0 10 -4 10 -10z m3180 -33 c0 -24 -3 -47
-6 -50 -4 -4 -8 -20 -9 -37 -9 -113 -25 -174 -41 -158 -9 10 16 177 32 208 6
14 10 38 7 53 -3 16 -1 27 6 27 6 0 11 -18 11 -43z m-235 -6 c-3 -6 -11 -11
-17 -11 -6 0 -6 6 2 15 14 17 26 13 15 -4z m-47 -78 c-33 -83 -49 -111 -77
-137 -17 -17 -31 -26 -31 -21 0 5 -7 0 -15 -11 -8 -10 -15 -33 -15 -50 0 -23
-6 -34 -25 -42 -27 -13 -70 -94 -62 -117 4 -8 2 -17 -3 -20 -12 -8 -13 -112
-1 -119 5 -3 11 -18 13 -33 3 -16 9 -36 13 -45 14 -35 -15 -18 -41 23 -30 49
-65 81 -114 106 -19 10 -37 21 -40 24 -3 3 -17 9 -32 13 -15 3 -41 19 -59 36
l-32 29 29 13 c27 11 57 34 161 125 23 20 61 47 85 61 24 14 45 28 48 32 3 3
38 28 78 55 39 26 72 54 72 61 0 13 37 44 52 44 4 0 3 -12 -4 -27z m-3516
-251 l-6 -37 -7 40 c-5 22 -8 60 -8 85 l1 45 13 -48 c7 -27 11 -65 7 -85z
m3458 49 c0 -10 -30 -24 -37 -17 -3 3 -2 9 2 15 8 13 35 15 35 2z m-2346 -134
c6 -76 3 -130 -10 -196 -5 -22 -4 -23 12 -10 9 8 27 34 38 59 l21 45 3 -54 c2
-29 -1 -74 -7 -100 -5 -25 -7 -48 -5 -50 3 -3 15 8 28 23 18 24 24 26 29 14
11 -29 -14 -162 -39 -208 -49 -91 -168 -184 -273 -214 -31 -9 -69 -21 -86 -26
-16 -5 -52 -12 -79 -16 l-49 -7 22 36 c12 20 25 55 30 79 5 27 12 42 20 40 8
-2 11 3 8 12 -3 8 3 22 14 32 10 9 19 25 19 34 0 10 7 23 15 30 8 7 13 16 10
20 -2 4 11 25 29 47 36 41 64 91 165 287 47 92 61 130 61 163 0 75 17 46 24
-40z m386 -63 c100 -62 333 -235 457 -341 82 -70 343 -321 343 -330 0 -3 -39
-56 -86 -119 -54 -73 -95 -119 -112 -125 -15 -5 -35 -14 -44 -19 -35 -20 -51
-10 -81 50 -17 33 -18 34 -12 6 6 -26 5 -28 -10 -16 -19 16 -39 61 -48 109 -6
27 -4 32 8 27 8 -3 15 -3 15 0 0 6 -59 114 -70 129 -4 6 -20 44 -34 85 -31 89
-45 118 -66 145 -9 11 -27 43 -41 72 -13 29 -30 52 -37 53 -7 0 -16 8 -19 18
-4 9 -42 51 -85 92 -43 42 -78 83 -78 91 0 20 -61 76 -132 122 -32 21 -58 42
-58 47 0 12 74 -25 190 -96z m-1839 -124 c24 -21 40 -39 34 -39 -5 0 -30 17
-53 39 -24 22 -39 40 -34 40 5 0 29 -18 53 -40z m3321 4 c112 -33 267 -163
314 -262 42 -88 50 -167 29 -260 -20 -88 -61 -199 -82 -224 -13 -15 -17 -33
-22 -105 -1 -18 -7 -23 -28 -23 -21 0 -24 -3 -15 -12 7 -7 12 -24 12 -38 0
-15 3 -30 8 -34 4 -4 7 -11 8 -14 0 -4 3 -18 6 -32 4 -14 12 -58 19 -97 7 -40
16 -73 21 -73 4 0 8 8 8 17 0 31 28 -18 32 -56 3 -29 -2 -38 -35 -65 -36 -29
-44 -31 -110 -30 -65 1 -73 4 -94 30 -13 16 -23 34 -23 41 0 6 -5 24 -12 40
-6 15 -11 31 -10 36 1 4 -3 7 -8 7 -6 0 -10 9 -10 19 0 21 -26 73 -50 102 -8
10 -20 24 -27 32 -6 8 -15 35 -18 61 -5 30 -12 46 -21 46 -10 0 -13 -7 -9 -22
3 -13 7 -75 9 -138 6 -173 27 -332 42 -320 16 14 43 2 84 -37 39 -36 50 -40
50 -18 0 8 -4 15 -10 15 -5 0 -10 4 -10 9 0 5 10 6 23 3 47 -12 60 -52 16 -52
-10 0 -19 -6 -19 -13 0 -44 -56 -112 -100 -122 -16 -4 -28 -11 -24 -16 3 -5
-4 -9 -15 -9 -12 0 -21 5 -21 10 0 6 -9 10 -20 10 -11 0 -20 4 -20 10 0 5 7 7
15 4 9 -4 15 0 15 9 0 9 3 22 6 31 4 12 0 16 -16 16 -12 0 -30 4 -40 10 -14 7
-23 6 -35 -6 -8 -9 -24 -14 -34 -11 -10 2 -25 0 -34 -4 -17 -10 -47 13 -47 37
0 8 -4 14 -9 14 -5 0 -7 10 -3 22 3 14 2 19 -6 14 -8 -5 -12 4 -12 27 0 18 -3
37 -7 41 -13 12 -34 165 -33 236 0 36 -3 60 -8 53 -10 -16 -3 124 9 161 12 39
11 46 -4 46 -9 0 -14 -16 -16 -46 -3 -71 -19 -143 -36 -167 -9 -12 -20 -40
-26 -62 -6 -22 -17 -53 -24 -70 -29 -67 -55 -154 -55 -182 0 -16 6 -52 14 -79
8 -27 17 -75 21 -108 3 -32 12 -84 20 -114 24 -89 20 -104 -25 -125 -27 -13
-57 -17 -102 -15 -57 3 -63 5 -66 26 -2 12 -7 22 -12 22 -5 0 -7 6 -4 13 3 8
-2 20 -11 27 -8 7 -15 27 -15 44 0 18 -4 36 -9 42 -4 5 -14 32 -21 59 -7 28
-24 83 -38 124 -21 65 -24 86 -19 165 3 50 13 111 22 136 35 92 56 185 54 234
-1 28 5 71 14 96 l15 45 2 -45 c3 -57 15 -101 23 -80 12 34 19 79 20 146 2 71
4 75 131 326 164 324 217 412 256 428 16 7 30 17 30 22 0 5 -5 6 -12 2 -7 -4
-8 -3 -4 5 4 6 11 9 16 6 4 -3 10 1 13 9 3 8 16 17 29 19 35 8 132 -2 190 -19z
m-3227 -76 c14 -6 23 -16 21 -22 -2 -6 -17 -49 -32 -96 -42 -132 -45 -134 -39
-30 2 52 5 110 5 128 0 35 6 38 45 20z m334 -20 c10 -30 9 -31 -4 -14 -8 11
-15 26 -15 33 0 22 8 14 19 -19z m1158 -140 c-2 -13 -4 -5 -4 17 -1 22 1 32 4
23 2 -10 2 -28 0 -40z m90 -153 c24 -20 47 -34 52 -31 5 4 13 -4 17 -16 3 -13
22 -38 40 -56 19 -18 34 -35 34 -37 0 -14 -81 -139 -120 -185 -93 -111 -126
-176 -137 -272 -3 -27 -11 -48 -17 -48 -6 0 -42 9 -80 20 -38 11 -72 18 -74
16 -7 -8 76 -46 100 -47 44 -1 79 -33 120 -109 41 -78 68 -114 68 -92 0 7 -4
20 -9 30 -5 9 -19 41 -32 70 -13 30 -36 63 -52 74 -31 22 -31 43 -1 43 16 0
19 9 22 58 2 42 7 57 17 57 9 0 15 10 15 25 0 16 6 25 16 25 8 0 12 5 9 10 -4
6 -10 8 -15 5 -22 -14 17 64 51 101 20 23 49 60 64 83 30 44 45 52 46 24 0
-10 3 -13 5 -6 8 18 71 83 82 83 5 0 21 14 36 31 15 16 31 29 35 27 17 -6 91
-78 91 -88 0 -6 18 -35 40 -64 35 -46 120 -200 120 -218 0 -7 -58 -38 -72 -38
-5 0 -25 -12 -44 -26 -29 -22 -34 -33 -34 -66 0 -22 -4 -47 -9 -57 -14 -25
-68 -237 -76 -297 -6 -44 -12 -55 -48 -82 -22 -18 -47 -32 -54 -32 -7 0 -13
-8 -14 -17 0 -12 -2 -13 -6 -5 -3 7 0 19 7 26 9 11 7 16 -10 21 -11 3 -29 24
-40 46 -14 26 -27 39 -41 39 -21 0 -49 23 -67 55 -7 11 -12 14 -12 7 0 -8 8
-26 19 -40 30 -43 64 -124 62 -149 -1 -13 -3 -34 -4 -47 -1 -13 -6 -24 -11
-23 -16 3 -69 -84 -58 -95 6 -6 16 -7 28 0 30 15 84 3 84 -19 0 -11 6 -18 13
-16 7 1 11 -7 9 -20 -2 -12 8 -39 21 -60 17 -27 23 -48 20 -73 -3 -28 -2 -32
7 -20 9 13 10 12 7 -5 -2 -12 -9 -18 -18 -16 -17 4 -24 4 -70 -3 -31 -5 -38
-2 -42 15 -3 12 -10 18 -16 15 -6 -4 -5 -19 5 -41 8 -19 14 -56 14 -82 0 -26
6 -60 14 -74 l13 -26 -41 15 c-120 46 -257 178 -302 293 -29 72 -45 88 -24 22
41 -128 178 -267 348 -355 19 -9 66 -22 105 -28 39 -6 73 -13 76 -15 11 -12
-108 -3 -144 11 -22 8 -52 17 -67 19 -24 3 -28 1 -28 -20 0 -21 -5 -25 -29
-25 -44 0 -59 9 -54 31 6 20 -12 49 -30 49 -5 0 -3 -8 6 -18 10 -10 17 -21 17
-25 0 -10 -57 10 -79 29 -27 24 -27 33 2 27 21 -4 22 -4 3 11 -23 19 -32 20
-41 6 -3 -5 -12 -10 -18 -10 -14 0 -83 61 -84 73 -2 18 -97 110 -105 101 -3
-2 -23 12 -46 32 -23 19 -42 32 -42 27 0 -41 206 -235 330 -310 19 -11 71 -28
115 -37 45 -10 83 -23 88 -31 10 -18 70 -20 97 -3 17 11 23 9 42 -9 22 -22 22
-22 3 -58 l-20 -35 -155 0 c-116 0 -175 5 -235 19 -44 10 -101 22 -127 25 -46
7 -203 58 -216 70 -8 9 -14 348 -7 414 6 44 9 51 21 41 18 -15 18 0 -1 25 -22
29 -18 51 10 64 14 6 25 16 25 22 0 5 8 10 18 10 14 0 17 -7 14 -38 -5 -47 33
-100 62 -89 14 5 15 11 6 27 -6 11 -15 20 -20 20 -6 0 -10 16 -10 35 0 21 -5
35 -12 35 -9 0 -9 3 1 13 10 10 17 6 36 -18 13 -16 26 -41 28 -55 3 -19 4 -16
6 11 0 19 -5 44 -13 55 -9 12 -11 23 -5 30 14 17 14 101 -1 119 -20 25 -93 20
-127 -9 -46 -38 -52 -92 -58 -501 -6 -361 -9 -461 -20 -576 -12 -130 -6 -273
14 -349 11 -41 18 -76 17 -78 -22 -21 -208 383 -286 618 -93 277 -215 548
-475 1049 -74 142 -95 192 -95 223 0 32 3 39 15 34 10 -3 18 1 21 12 3 9 10
26 14 37 5 11 20 56 35 100 27 84 30 91 65 167 23 51 34 62 68 73 17 5 28 0
47 -22 32 -37 131 -158 175 -213 109 -135 236 -262 335 -336 44 -32 118 -90
163 -129 46 -38 105 -85 130 -103 59 -42 53 -35 62 -74 l8 -33 1 35 c1 29 -4
39 -28 53 -16 9 -39 28 -52 42 -13 14 -44 40 -69 57 -121 84 -326 267 -313
278 5 4 67 22 138 40 113 28 152 41 250 80 11 4 -7 6 -42 3 -66 -6 -99 7 -88
35 3 10 0 12 -10 8 -8 -3 -15 0 -15 7 0 7 -46 39 -101 72 -85 50 -163 118
-148 128 2 2 16 9 32 17 16 8 23 16 16 20 -27 17 121 26 152 10 14 -8 35 -5
84 11 36 13 62 25 60 28 -3 2 25 13 62 22 60 16 74 24 118 73 76 83 124 150
140 196 21 60 28 69 35 43 3 -12 24 -38 47 -58z m38 -13 c-11 -11 -27 17 -20
35 6 16 8 16 16 -6 5 -13 7 -26 4 -29z m2018 -427 c8 -44 32 -136 52 -205 59
-198 59 -199 42 -329 -9 -64 -19 -145 -22 -181 -11 -110 -57 -290 -75 -290 -4
0 -11 19 -15 43 -14 97 -40 187 -77 261 -21 44 -38 83 -38 87 0 4 -14 28 -31
53 -33 51 -32 61 8 71 40 9 103 74 103 105 0 26 -29 126 -50 170 -6 14 -24 33
-41 42 -34 20 -36 36 -9 80 11 19 20 51 20 74 0 23 11 66 24 95 13 30 36 85
52 124 l29 70 7 -95 c4 -52 13 -131 21 -175z m-4680 70 c17 -12 12 -15 -40
-34 -32 -12 -67 -26 -78 -31 -79 -36 -137 -60 -146 -60 -5 0 -28 -9 -49 -20
-29 -15 -50 -19 -79 -14 l-39 6 117 60 c64 32 136 71 161 87 37 23 53 27 90
23 25 -3 53 -10 63 -17z m5112 -96 c8 -15 16 -54 17 -86 3 -55 2 -58 -22 -60
-31 -3 -74 54 -92 123 -12 43 -11 47 10 65 22 17 25 17 48 2 14 -9 31 -28 39
-44z m-3305 5 c3 -15 14 -33 25 -39 11 -5 64 -34 118 -62 54 -29 108 -53 120
-53 51 -1 47 -17 -8 -30 -30 -7 -55 -17 -55 -21 0 -4 -8 -8 -17 -8 -10 0 -38
-5 -63 -11 -25 -6 -52 -13 -61 -15 -8 -2 -40 22 -71 54 l-56 57 15 60 c8 32
17 69 20 82 7 30 27 23 33 -14z m1590 12 c0 -11 -19 -15 -25 -6 -3 5 1 10 9
10 9 0 16 -2 16 -4z m101 -17 c4 -8 4 -16 -1 -19 -5 -3 -14 -27 -20 -53 -17
-79 -68 -177 -99 -189 -24 -10 -25 -11 -6 -19 13 -5 5 -7 -25 -4 -35 4 -39 3
-20 -4 l25 -9 -27 -1 c-23 -1 -27 3 -30 31 -2 17 -9 33 -17 36 -9 3 -11 -1 -7
-15 5 -16 -11 -137 -30 -223 -15 -64 -15 -82 -5 -112 6 -18 14 -71 17 -118 7
-95 -5 -143 -33 -138 -10 1 -30 -6 -45 -16 -41 -27 -72 -15 -92 34 -22 55 -20
67 9 74 14 4 25 11 25 16 0 19 38 10 53 -12 11 -16 16 -18 16 -8 1 31 -25 49
-72 51 -52 3 -53 5 -32 45 26 50 18 71 -39 99 -20 10 -21 17 -18 105 2 52 8
109 13 125 5 17 11 72 13 124 l4 94 45 18 c25 10 64 19 86 20 22 2 43 9 45 16
3 7 19 13 36 13 18 0 29 4 25 10 -3 6 0 10 7 11 61 3 108 17 108 31 0 15 81 3
91 -13z m-924 -41 c-3 -8 -6 -5 -6 6 -1 11 2 17 5 13 3 -3 4 -12 1 -19z m-863
-13 c-4 -8 -8 -15 -10 -15 -2 0 -4 7 -4 15 0 8 4 15 10 15 5 0 7 -7 4 -15z
m-2155 -68 c10 3 22 0 25 -6 5 -7 -3 -11 -19 -11 -51 0 -140 -54 -218 -132
-10 -10 -21 -18 -25 -18 -10 0 -188 -175 -224 -220 -36 -44 -49 -30 -20 21 12
21 18 39 12 39 -6 0 -8 5 -5 11 4 6 14 8 22 5 11 -4 13 -2 10 9 -10 25 116
168 203 230 56 40 142 77 168 72 15 -3 26 1 29 10 5 13 7 13 14 0 5 -9 17 -13
28 -10z m1599 -162 c7 -14 17 -36 24 -50 6 -14 15 -25 20 -25 4 0 8 -7 8 -15
0 -16 37 -96 49 -105 8 -7 47 -89 56 -119 4 -14 12 -29 17 -35 44 -52 117
-167 158 -250 28 -55 50 -102 50 -105 0 -3 -20 24 -44 60 -25 37 -51 69 -59
72 -22 8 -101 132 -163 257 -31 62 -69 135 -86 163 -16 28 -40 79 -53 114 -20
57 -21 63 -5 63 9 0 22 -11 28 -25z m3159 -148 c24 -33 43 -60 41 -62 -2 -2
-24 -6 -49 -9 -42 -6 -50 -3 -78 23 -27 25 -31 36 -31 83 0 29 -3 64 -6 78 -6
23 -3 21 36 -15 23 -22 62 -66 87 -98z m-947 -179 c-15 -40 -36 -95 -46 -123
l-18 -50 -6 35 c-4 19 -3 43 2 52 4 9 8 24 8 33 0 40 52 125 76 125 9 0 4 -22
-16 -72z m-4319 29 c-10 -9 -11 -8 -5 6 3 10 9 15 12 12 3 -3 0 -11 -7 -18z
m5379 -87 c-40 -28 -48 -30 -43 -12 2 11 15 19 31 20 21 1 24 0 12 -8z m-1411
-66 c33 -47 52 -123 37 -146 -6 -10 -14 -18 -19 -18 -4 0 -27 -21 -51 -46 -25
-25 -51 -44 -58 -42 -9 3 -13 25 -14 64 -1 32 -4 75 -8 95 -7 31 -4 38 18 53
14 9 26 22 26 28 0 12 29 48 39 48 3 0 17 -16 30 -36z m-262 -50 c-3 -3 -12
-4 -19 -1 -8 3 -5 6 6 6 11 1 17 -2 13 -5z m453 -178 c0 -17 -14 -29 -23 -20
-8 8 3 34 14 34 5 0 9 -6 9 -14z m-46 -55 c12 -19 -128 -201 -154 -201 -4 0
-10 10 -13 23 -2 12 -8 29 -11 38 -5 12 3 22 34 38 60 31 142 98 127 104 -9 4
-9 6 0 6 6 1 14 -3 17 -8z m-4334 -50 c0 -22 -10 -38 -37 -60 -20 -17 -38 -29
-40 -27 -8 8 31 96 43 96 8 0 14 5 14 10 0 6 5 10 10 10 6 0 10 -13 10 -29z
m5042 -18 c20 -18 24 -43 8 -43 -17 0 -70 42 -64 52 8 13 36 9 56 -9z m-980
-161 c11 -13 6 -14 -45 -10 -78 6 -94 24 -22 25 37 0 59 -4 67 -15z m111 -77
c-43 -41 -63 -53 -63 -41 0 10 66 74 80 79 33 12 30 5 -17 -38z m64 -11 c-3
-3 -12 -4 -19 -1 -8 3 -5 6 6 6 11 1 17 -2 13 -5z m-147 -72 c0 -19 -43 -46
-54 -35 -4 5 42 53 52 53 1 0 2 -8 2 -18z m-782 -30 c4 -30 -24 -74 -46 -70
-12 2 -16 15 -17 51 -1 48 0 48 30 45 23 -2 31 -9 33 -26z m-3529 -24 c-10
-18 -9 -20 5 -15 11 5 16 1 16 -12 0 -18 -71 -91 -89 -91 -5 0 -45 -37 -90
-82 -44 -45 -81 -77 -81 -72 0 20 93 142 166 217 42 42 78 77 80 77 3 0 0 -10
-7 -22z m4421 -92 c0 -20 -1 -20 -20 4 l-20 25 0 -25 c0 -18 -3 -21 -9 -12 -5
9 -8 3 -7 -17 1 -33 20 -42 30 -15 4 9 9 14 13 11 11 -11 -19 -37 -42 -37 -40
0 -38 87 3 118 14 11 20 10 35 -9 9 -12 17 -31 17 -43z m-460 19 c18 -21 19
-47 2 -72 -25 -39 -92 -23 -92 22 0 49 62 84 90 50z m927 -202 c-3 -16 -12
-47 -21 -71 -9 -24 -24 -93 -33 -153 -20 -130 -30 -152 -54 -111 -15 27 -14
32 12 98 15 38 40 113 55 167 15 53 32 97 37 97 5 0 7 -12 4 -27z m-550 -431
c17 -10 27 -59 14 -66 -7 -4 -11 1 -11 13 0 22 -8 26 -25 13 -16 -10 -13 -63
3 -57 6 2 12 0 12 -4 0 -16 -28 -20 -46 -7 -13 10 -16 22 -11 50 9 57 33 78
64 58z m-2903 -74 c22 -18 77 -69 122 -113 103 -102 218 -210 322 -303 67 -60
88 -87 116 -145 44 -93 56 -154 56 -285 0 -113 4 -125 57 -183 l24 -26 -83 -5
c-55 -3 -99 -12 -130 -26 l-48 -21 -42 24 c-98 56 -240 15 -296 -85 -72 -129
-96 -169 -120 -200 -15 -19 -35 -47 -44 -62 -10 -14 -34 -32 -55 -38 -21 -7
-60 -29 -88 -49 -63 -46 -121 -83 -162 -105 -37 -19 -34 -21 -146 104 -93 104
-129 179 -198 410 -47 161 -77 237 -119 307 -22 37 -39 70 -38 74 2 4 33 32
70 64 50 42 70 67 78 94 12 46 54 86 204 192 106 75 322 268 415 372 18 20 40
37 48 37 8 0 34 -15 57 -32z m3327 -380 c1 -7 1 -16 1 -20 -1 -3 5 -12 13 -18
24 -20 19 -50 -9 -50 -29 0 -37 17 -29 64 5 34 22 50 24 24z m-5511 -33 c-7
-9 -15 -13 -17 -11 -7 7 7 26 19 26 6 0 6 -6 -2 -15z m5060 -154 c13 -25 13
-51 0 -51 -5 0 -10 6 -10 14 0 8 -7 17 -15 20 -9 3 -15 1 -14 -7 5 -38 -2 -57
-21 -57 -23 0 -27 34 -8 75 14 30 53 34 68 6z m-15 -90 c-3 -6 -14 -10 -23
-10 -15 1 -15 2 1 6 9 2 17 9 17 15 0 6 3 9 6 5 3 -3 3 -10 -1 -16z m-2201
-198 c-2 -16 -1 -20 2 -10 3 9 11 17 17 16 15 -1 55 -17 44 -18 -4 -1 3 -11
16 -23 21 -19 24 -30 20 -60 -3 -25 -11 -39 -24 -43 -11 -4 -17 -11 -14 -16 4
-5 2 -9 -3 -9 -10 0 -42 36 -59 67 -15 25 -18 137 -4 129 4 -3 7 -18 5 -33z
m435 -210 c20 -9 43 -22 51 -28 8 -7 60 -27 115 -45 55 -19 106 -38 113 -43
33 -25 -8 -111 -67 -142 -33 -17 -134 -28 -126 -14 4 5 -6 4 -20 -3 -22 -10
-28 -9 -35 2 -7 11 -12 12 -21 3 -14 -14 -41 -5 -32 11 4 8 3 8 -6 0 -10 -9
-23 -8 -52 4 -45 17 -49 29 -14 42 29 11 33 29 8 31 -53 4 -66 8 -88 29 -20
19 -30 21 -62 15 -21 -4 -54 -9 -73 -11 -19 -2 -49 -6 -67 -9 -23 -4 -46 1
-80 19 -26 13 -74 36 -105 51 -32 14 -58 30 -58 35 0 16 86 37 159 39 41 1 77
4 80 6 3 1 44 6 91 10 47 4 105 10 130 15 56 10 113 4 159 -17z m-690 -46 c62
-35 98 -53 182 -91 70 -32 106 -72 143 -161 29 -69 63 -125 117 -195 15 -19
33 -52 40 -72 12 -34 11 -40 -14 -77 -15 -23 -31 -41 -35 -42 -4 0 -15 -2 -24
-4 -10 -2 -18 2 -18 8 0 9 -3 8 -8 0 -12 -19 -117 14 -153 48 -16 15 -29 25
-29 22 0 -2 -7 2 -15 11 -8 8 -13 21 -10 28 3 8 -3 23 -13 33 -36 41 -62 84
-66 112 -5 50 -74 152 -93 140 -5 -3 -25 8 -44 26 -40 37 -108 84 -161 112
-35 18 -42 27 -39 48 0 4 -4 7 -11 7 -22 0 28 43 77 66 62 29 99 25 174 -19z
m-1078 -227 c25 -63 120 -214 160 -252 69 -67 47 -78 -39 -20 -31 21 -79 49
-107 62 -27 14 -61 33 -75 44 l-25 18 35 -5 c19 -3 45 -8 58 -12 30 -10 28 5
-9 51 -46 58 -78 127 -76 165 1 19 -2 72 -6 119 l-7 85 39 -110 c21 -60 45
-126 52 -145z m1479 -85 c0 -25 -4 -45 -10 -45 -5 0 -10 9 -10 19 0 11 -4 23
-10 26 -19 12 -11 45 10 45 17 0 20 -7 20 -45z m75 35 c-3 -5 -1 -19 5 -30 8
-15 8 -25 1 -34 -14 -16 4 -32 81 -72 52 -26 58 -32 58 -60 0 -33 -14 -44 -53
-44 -32 1 -60 20 -101 68 -33 40 -36 49 -36 106 0 35 3 66 7 69 10 11 45 8 38
-3z m-841 -100 c14 -5 56 -51 94 -102 38 -51 86 -109 107 -128 66 -62 110
-131 129 -203 10 -37 38 -107 63 -155 33 -67 45 -102 50 -152 6 -77 -7 -96
-76 -106 -34 -5 -47 -2 -74 19 -18 13 -39 37 -47 53 -8 16 -24 43 -35 59 -12
17 -32 52 -44 79 -12 27 -44 73 -71 102 -28 29 -50 60 -50 68 0 24 -32 87 -72
143 -21 29 -38 56 -38 61 0 6 -21 20 -47 32 -68 31 -83 47 -83 89 0 67 -34 80
-64 25 -6 -10 -15 -22 -21 -26 -5 -4 -19 -13 -29 -20 -10 -7 -46 -36 -80 -65
-33 -28 -64 -50 -67 -47 -3 2 -4 15 -2 28 8 40 156 158 263 209 92 44 148 55
194 37z m399 -69 c19 -27 26 -48 22 -61 -8 -24 -28 -26 -45 -5 -7 8 -23 15
-35 15 -13 0 -26 8 -30 18 -11 27 -17 73 -11 88 9 23 68 -9 99 -55z m92 -31
c3 -5 2 -10 -4 -10 -5 0 -13 5 -16 10 -3 6 -2 10 4 10 5 0 13 -4 16 -10z m24
-82 c21 -18 51 -43 67 -54 l29 -21 -21 -19 c-22 -20 -121 -310 -110 -322 3 -3
7 -3 9 -1 20 34 37 74 37 89 0 10 5 22 10 25 6 3 10 15 10 25 0 10 5 22 11 26
13 8 12 -3 -16 -104 -16 -62 -50 -132 -63 -132 -19 1 -61 62 -80 116 -24 65
-23 71 13 279 5 32 53 125 64 125 2 0 20 -15 40 -32z m-159 -59 c23 -4 25 -8
28 -67 1 -35 -3 -82 -9 -105 l-12 -42 -13 39 c-8 22 -12 49 -8 60 4 16 3 17
-4 7 -8 -11 -15 -4 -31 30 -11 24 -38 63 -61 87 -22 24 -40 45 -40 47 0 2 28
-9 63 -25 34 -15 73 -30 87 -31z m-940 -187 c62 -11 64 -13 110 -91 44 -76
106 -159 157 -209 18 -18 45 -54 58 -80 43 -80 61 -106 130 -193 37 -46 81
-104 98 -129 16 -25 41 -57 54 -72 29 -31 25 -58 -15 -100 -35 -38 -77 -37
-120 2 -18 16 -48 37 -67 46 -31 15 -71 52 -134 130 -78 93 -124 142 -147 154
-25 14 -53 60 -79 133 -13 35 -126 189 -159 216 -8 7 -13 18 -10 25 3 8 -4 16
-15 19 -13 3 -21 13 -21 26 0 26 5 26 30 1 24 -24 50 -26 50 -5 0 22 -30 77
-49 93 -14 11 -13 14 9 33 16 14 33 19 50 15 14 -3 45 -9 70 -14z m685 -281
c-3 -3 -9 0 -14 7 -5 9 -12 9 -27 -3 -10 -8 -25 -15 -33 -15 -22 0 6 28 32 32
23 4 52 -11 42 -21z m440 -15 c17 -4 116 -11 220 -16 116 -4 211 -14 245 -23
84 -23 215 -76 252 -101 29 -19 33 -28 34 -66 1 -54 -11 -87 -43 -117 -22 -21
-33 -23 -131 -21 -99 1 -102 2 -42 8 73 7 75 10 10 14 -25 2 -71 7 -103 11
-41 6 -65 4 -81 -5 -15 -8 -43 -10 -77 -6 -30 3 -64 6 -76 6 -16 0 -23 6 -23
19 0 16 -18 28 -52 35 -3 0 -10 4 -14 9 -4 4 -25 7 -46 7 -21 0 -38 5 -38 11
0 6 -6 9 -14 6 -7 -3 -30 5 -49 19 -20 13 -45 24 -55 24 -31 0 -37 31 -10 51
19 15 22 26 23 93 0 73 1 75 20 62 11 -7 34 -16 50 -20z m408 -343 c-7 -2 -19
-2 -25 0 -7 3 -2 5 12 5 14 0 19 -2 13 -5z m-833 -124 c0 -5 5 -9 10 -9 6 0
10 8 10 17 0 9 3 13 7 9 4 -4 0 -21 -9 -39 -10 -18 -22 -50 -27 -73 -6 -22
-28 -68 -50 -101 -36 -56 -71 -138 -138 -318 -14 -38 -33 -91 -43 -116 -10
-25 -30 -88 -44 -140 -49 -171 -58 -198 -87 -266 -15 -38 -29 -59 -29 -48 -1
11 -3 29 -5 40 -2 11 -9 61 -16 110 -20 151 -98 425 -121 425 -13 0 -9 -18 13
-65 29 -62 22 -112 -31 -205 -62 -109 -129 -210 -139 -210 -4 0 -13 44 -18 98
-11 93 -11 90 -7 -73 2 -93 0 -188 -4 -210 -7 -39 -8 -37 -58 110 -66 192
-116 326 -147 395 -21 46 -25 68 -23 133 2 44 7 82 13 85 11 7 29 70 24 86 -1
5 3 12 10 16 9 6 8 29 -3 97 -12 71 -21 95 -42 116 -14 14 -26 36 -26 49 0 13
3 18 8 12 4 -6 20 -15 37 -21 25 -8 31 -17 37 -54 12 -66 40 -173 48 -184 7
-9 89 -339 105 -419 3 -15 8 -26 11 -23 9 9 -103 527 -142 655 -5 19 -3 22 21
22 44 0 77 -27 145 -121 62 -85 87 -110 73 -71 -4 9 -23 38 -42 64 -20 26 -46
63 -58 82 l-22 35 37 6 c20 4 67 16 104 27 37 10 78 18 90 16 20 -3 23 -9 26
-58 1 -30 8 -65 14 -77 15 -31 7 -36 -28 -18 -16 8 -37 12 -48 9 -13 -4 -16
-3 -11 6 5 8 4 11 -3 6 -5 -3 -12 -1 -14 5 -2 6 -13 10 -23 7 -14 -2 -1 -13
46 -36 36 -18 72 -32 79 -32 7 0 10 -3 6 -7 -8 -8 78 -63 99 -63 20 0 19 10
-5 35 -11 11 -22 39 -26 60 -3 22 -10 46 -16 52 -6 7 -8 26 -6 43 2 16 1 31
-3 32 -4 2 -9 12 -11 23 -6 38 30 25 110 -39 94 -74 156 -99 218 -87 51 10 76
33 93 88 12 36 12 47 -2 82 -12 30 -13 41 -4 44 16 5 37 -3 37 -14z m-50 -75
c0 -8 -5 -12 -10 -9 -6 4 -8 11 -5 16 9 14 15 11 15 -7z m200 6 c0 -5 -7 -10
-16 -10 -8 0 -12 5 -9 10 3 6 10 10 16 10 5 0 9 -4 9 -10z m-218 -52 c-7 -7
-12 -8 -12 -2 0 14 12 26 19 19 2 -3 -1 -11 -7 -17z m-404 -655 c24 -94 42
-219 42 -290 0 -69 -1 -73 -23 -73 -30 0 -57 33 -57 70 0 16 -4 32 -10 35 -5
3 -10 13 -10 21 0 23 -43 83 -62 86 -16 3 -15 8 8 58 24 52 83 139 95 140 3 0
11 -21 17 -47z m-105 -203 c16 -15 18 -26 12 -67 -7 -51 17 -161 49 -225 9
-17 16 -42 16 -55 0 -13 7 -34 16 -48 8 -13 14 -29 13 -37 -1 -7 1 -26 6 -41
4 -15 2 -79 -5 -142 -12 -103 -15 -114 -34 -117 -13 -2 -22 -12 -24 -25 -3
-17 -11 -23 -40 -25 -42 -3 -59 -35 -24 -44 17 -5 20 -18 25 -122 4 -63 3
-120 -2 -126 -5 -6 -11 -20 -14 -31 -4 -19 -5 -19 -6 1 0 12 -12 30 -26 40
-14 10 -25 29 -25 41 0 12 -4 25 -10 28 -5 3 -10 17 -10 30 0 13 -4 27 -10 30
-5 3 -10 17 -10 31 0 13 -5 24 -10 24 -6 0 -10 12 -9 28 1 25 -9 63 -34 122
-6 14 -12 34 -13 45 -2 11 -10 63 -19 115 -20 120 -30 317 -17 350 9 24 10 24
21 -15 13 -49 40 -90 52 -78 4 4 10 61 12 127 4 90 9 123 21 137 9 11 16 26
16 34 0 8 5 15 10 15 6 0 10 7 10 16 0 19 34 10 63 -16z m246 -482 c-1 -31 -1
-31 -8 -8 -5 14 -6 28 -4 33 9 15 13 6 12 -25z m-871 -578 c-5 -36 -18 -83
-30 -105 -31 -58 -152 -197 -156 -179 -2 8 3 25 11 37 13 21 37 63 107 192 44
82 72 127 75 123 2 -2 -1 -32 -7 -68z m646 -82 c-10 -16 -22 -7 -17 13 4 15 8
17 14 8 4 -7 5 -17 3 -21z m13 -30 c-3 -8 -6 -5 -6 6 -1 11 2 17 5 13 3 -3 4
-12 1 -19z m-717 -145 c0 -31 -9 -47 -43 -84 -23 -26 -53 -66 -67 -90 -22 -39
-49 -70 -175 -202 -47 -49 -43 -27 16 88 98 188 127 234 147 227 6 -2 35 19
64 47 29 28 54 51 56 51 1 0 2 -17 2 -37z"/>
<path d="M6550 7080 c0 -5 5 -10 10 -10 6 0 10 5 10 10 0 6 -4 10 -10 10 -5 0
-10 -4 -10 -10z"/>
<path d="M5232 7331 c-40 -7 -71 -32 -72 -57 0 -16 28 -26 35 -13 4 5 29 21
56 35 27 13 47 29 44 34 -3 6 -9 9 -13 9 -4 -1 -26 -5 -50 -8z"/>
<path d="M4731 6954 c0 -11 3 -14 6 -6 3 7 2 16 -1 19 -3 4 -6 -2 -5 -13z"/>
<path d="M3450 4270 c0 -5 5 -10 11 -10 5 0 7 5 4 10 -3 6 -8 10 -11 10 -2 0
-4 -4 -4 -10z"/>
<path d="M3445 4230 c3 -5 11 -10 16 -10 6 0 7 5 4 10 -3 6 -11 10 -16 10 -6
0 -7 -4 -4 -10z"/>
<path d="M3140 3860 c0 -5 5 -10 11 -10 5 0 7 5 4 10 -3 6 -8 10 -11 10 -2 0
-4 -4 -4 -10z"/>
<path d="M2765 3770 c-9 -15 4 -30 25 -30 10 0 21 -6 23 -12 3 -7 6 2 6 20 1
28 -2 32 -23 32 -14 0 -28 -4 -31 -10z"/>
<path d="M3640 3000 c0 -5 7 -10 15 -10 8 0 15 5 15 10 0 6 -7 10 -15 10 -8 0
-15 -4 -15 -10z"/>
<path d="M1940 2533 c0 -4 5 -15 10 -23 8 -13 10 -13 10 2 0 9 -4 20 -10 23
-5 3 -10 3 -10 -2z"/>
<path d="M1981 2450 c-1 -21 37 -99 38 -79 1 9 -2 19 -6 23 -5 4 -13 22 -20
39 -6 18 -12 25 -12 17z"/>
<path d="M4391 10726 c2 -2 18 -6 34 -10 22 -5 26 -4 15 4 -14 9 -59 15 -49 6z"/>
<path d="M4578 10650 c42 -26 56 -26 17 0 -16 11 -34 20 -40 20 -5 0 5 -9 23
-20z"/>
<path d="M4630 10616 c0 -2 7 -7 16 -10 8 -3 12 -2 9 4 -6 10 -25 14 -25 6z"/>
<path d="M4736 10534 c39 -38 88 -89 108 -114 23 -27 30 -33 20 -15 -28 46
-111 135 -157 168 -31 22 -23 12 29 -39z"/>
<path d="M7200 7330 c1 -18 29 -70 30 -54 0 7 -7 25 -15 40 -8 16 -15 22 -15
14z"/>
<path d="M7230 7257 c0 -18 73 -150 128 -231 57 -85 254 -296 276 -296 6 0
-28 39 -75 88 -108 110 -156 163 -184 204 -39 58 -115 186 -115 195 -1 10 -30
49 -30 40z"/>
<path d="M7653 6725 c-9 -10 -3 -21 28 -51 46 -45 50 -36 11 22 -21 33 -29 39
-39 29z"/>
<path d="M5039 3763 c-6 -48 0 -107 12 -114 25 -16 30 -10 13 16 -10 16 -15
39 -12 65 2 22 0 40 -4 40 -5 0 -8 -3 -9 -7z"/>
<path d="M5131 3744 c0 -11 3 -14 6 -6 3 7 2 16 -1 19 -3 4 -6 -2 -5 -13z"/>
<path d="M3535 3400 c-3 -5 -1 -10 4 -10 6 0 11 5 11 10 0 6 -2 10 -4 10 -3 0
-8 -4 -11 -10z"/>
<path d="M5091 3055 c0 -11 4 -27 9 -35 9 -13 10 -13 9 0 0 8 -4 24 -9 35 l-9
20 0 -20z"/>
<path d="M6190 3042 c0 -5 11 -26 25 -46 14 -20 25 -39 25 -43 0 -9 62 -86
105 -129 404 -406 679 -700 765 -818 19 -26 60 -80 90 -119 73 -94 156 -208
203 -277 20 -30 49 -73 64 -95 16 -22 36 -58 45 -80 64 -147 144 -423 146
-499 1 -22 6 -74 11 -115 25 -188 30 -478 12 -676 -6 -66 -11 -126 -11 -132 0
-10 78 -13 356 -13 l355 0 -7 23 -6 22 19 -22 c23 -26 63 -31 63 -8 0 8 -6 15
-12 15 -9 0 -8 4 2 10 13 9 13 12 -2 20 -9 6 -34 38 -56 72 -23 35 -93 135
-157 222 -103 140 -302 430 -450 655 -28 42 -65 95 -82 119 -18 24 -42 65 -54
90 -102 218 -151 313 -173 339 -14 17 -26 34 -26 38 0 3 -35 50 -78 103 -43
53 -86 111 -96 127 -11 17 -28 39 -38 50 -11 11 -39 47 -64 80 -113 153 -149
198 -224 280 -40 44 -116 127 -169 185 -53 57 -164 172 -248 255 -157 155
-313 330 -313 352 0 6 -4 15 -10 18 -5 3 -10 2 -10 -3z m1460 -1892 c0 -6 12
-29 26 -52 21 -32 24 -45 16 -62 -8 -16 -11 -17 -11 -5 -1 9 -12 42 -26 73
-14 31 -20 56 -15 56 6 0 10 -5 10 -10z m79 -149 c-1 -13 -2 -13 -6 2 -2 9 -9
17 -14 17 -5 0 -9 5 -9 11 0 8 5 8 15 -1 8 -7 14 -20 14 -29z m41 -53 c0 -7 9
-19 21 -26 12 -7 19 -16 16 -19 -3 -2 11 -26 30 -51 20 -26 40 -57 46 -69 6
-13 14 -23 19 -23 4 0 8 -8 8 -18 0 -10 9 -24 19 -32 11 -7 18 -17 16 -20 -3
-4 4 -15 15 -25 21 -19 27 -45 10 -45 -5 0 -10 -7 -10 -16 0 -10 -7 -14 -22
-12 -18 2 -24 11 -26 36 -3 27 -7 33 -22 29 -21 -5 -35 29 -23 59 4 12 2 15
-8 12 -14 -5 -39 14 -39 29 0 5 -16 28 -35 50 -19 23 -35 46 -35 52 0 6 -4 11
-10 11 -5 0 -10 5 -10 11 0 5 5 7 10 4 6 -3 10 -1 10 5 0 6 -8 9 -18 6 -14 -5
-22 3 -35 29 -16 34 -16 36 1 41 9 3 24 9 32 13 16 9 40 -10 40 -31z m241
-369 c4 -13 7 -20 8 -16 1 5 8 2 16 -7 17 -17 20 -46 4 -46 -5 0 -7 -4 -4 -10
3 -5 0 -10 -9 -10 -8 0 -16 -5 -18 -12 -2 -6 -14 3 -27 20 -19 28 -20 33 -7
38 9 4 25 4 37 1 16 -4 18 -3 9 8 -6 8 -17 13 -23 11 -7 -1 -9 -1 -4 1 11 7 9
41 -3 46 -6 3 -5 4 2 3 7 -1 15 -13 19 -27z m63 -85 c9 -24 7 -27 -9 -10 -17
17 -19 26 -6 26 5 0 12 -7 15 -16z m46 -72 c0 -6 -6 -12 -12 -15 -10 -3 -10
-9 1 -29 10 -19 10 -31 2 -44 -9 -17 -10 -17 -11 6 0 14 -7 33 -15 43 -10 14
-11 26 -3 48 8 25 12 27 24 15 8 -8 14 -19 14 -24z m28 -50 c2 -11 12 -24 23
-27 10 -4 19 -13 19 -22 0 -9 8 -22 17 -29 10 -7 15 -15 12 -19 -4 -3 -14 1
-22 10 -21 21 -30 19 -22 -5 4 -12 2 -20 -5 -20 -15 0 -26 33 -12 38 17 5 15
39 -3 46 -8 3 -15 14 -15 25 0 11 -5 22 -10 24 -6 3 -5 4 2 3 7 -1 14 -12 16
-24z m119 -157 c8 -9 12 -19 8 -23 -4 -4 -10 -1 -12 6 -8 21 -25 13 -18 -8 7
-23 -7 -27 -24 -6 -14 17 -4 46 16 46 8 0 21 -7 30 -15z m31 -47 c-3 -7 4 -21
14 -32 12 -13 15 -23 8 -30 -5 -5 -10 -19 -10 -31 0 -18 -1 -17 -13 5 -16 30
-19 100 -5 100 5 0 8 -6 6 -12z m56 -94 c9 -24 7 -27 -9 -10 -17 17 -19 26 -6
26 5 0 12 -7 15 -16z"/>
<path d="M7798 832 c-16 -3 -16 -5 -3 -19 17 -17 29 -12 23 9 -1 7 -11 12 -20
10z"/>
<path d="M7860 746 c0 -2 7 -6 15 -10 8 -3 15 -1 15 4 0 6 -7 10 -15 10 -8 0
-15 -2 -15 -4z"/>
<path d="M5347 2272 c-10 -10 -17 -27 -17 -38 1 -18 1 -18 16 1 38 49 38 78 1
37z"/>
<path d="M5653 1523 c-33 -16 -49 -38 -34 -47 10 -6 81 41 81 54 0 13 -9 12
-47 -7z"/>
<path d="M4833 865 c-3 -9 -3 -18 -1 -21 3 -3 8 4 11 16 6 23 -1 27 -10 5z"/>
<path d="M5912 827 c-29 -30 -41 -57 -26 -57 11 0 64 64 64 78 0 17 -2 16 -38
-21z"/>
<path d="M4650 736 c-13 -36 -13 -69 2 -84 15 -15 48 -16 48 -2 0 6 -6 10 -14
10 -28 0 -39 27 -26 60 7 17 10 33 7 37 -4 3 -11 -6 -17 -21z"/>
<path d="M4702 354 c-13 -49 -35 -116 -48 -148 -13 -33 -22 -62 -19 -64 7 -7
9 -5 37 58 27 58 62 199 56 227 -2 9 -14 -24 -26 -73z"/>
<path d="M6191 183 c-28 -32 -40 -63 -26 -63 14 0 75 69 75 84 0 25 -15 19
-49 -21z"/>
<path d="M4616 91 c-4 -7 -5 -15 -2 -18 9 -9 19 4 14 18 -4 11 -6 11 -12 0z"/>
</g>
</svg>
