<?xml version="1.0" standalone="no"?>
<!DOCTYPE svg PUBLIC "-//W3C//DTD SVG 20010904//EN"
 "http://www.w3.org/TR/2001/REC-SVG-20010904/DTD/svg10.dtd">
<svg version="1.0" xmlns="http://www.w3.org/2000/svg"
 width="900.000000pt" height="911.000000pt" viewBox="0 0 900.000000 911.000000"
 preserveAspectRatio="xMidYMid meet">

<g transform="translate(0.000000,911.000000) scale(0.100000,-0.100000)"
fill="#000000" stroke="none">
<path d="M6268 9104 c-3 -2 8 -42 23 -88 31 -88 43 -170 54 -346 l7 -105 -47
78 c-84 142 -252 295 -389 356 -58 25 -154 51 -187 51 -20 -1 -18 -4 16 -22
44 -23 322 -294 313 -304 -4 -3 -34 13 -68 36 -161 110 -358 150 -565 115 -55
-9 -107 -17 -115 -17 -19 -1 -375 70 -412 82 -38 12 -44 -4 -11 -28 42 -30
212 -117 266 -137 26 -10 47 -20 47 -24 0 -3 -61 -7 -135 -9 -109 -2 -156 -8
-249 -31 -114 -29 -186 -56 -186 -71 0 -4 62 -10 138 -12 133 -5 302 -33 302
-50 0 -4 -26 -8 -58 -8 -71 0 -255 -25 -332 -45 -86 -22 -217 -73 -304 -116
-85 -43 -250 -148 -243 -155 2 -3 40 11 83 31 166 76 393 135 513 135 l46 0
-60 -33 c-123 -66 -190 -125 -254 -219 -41 -62 -39 -76 7 -39 90 73 334 154
499 166 51 3 71 2 57 -4 -38 -17 -159 -93 -194 -123 -19 -16 -69 -51 -110 -78
-85 -56 -120 -88 -206 -186 -72 -82 -94 -113 -94 -133 0 -7 15 6 34 31 19 25
56 59 83 76 53 33 263 142 276 142 4 0 -15 -22 -42 -50 -28 -27 -64 -70 -80
-94 -17 -25 -65 -68 -108 -99 -155 -108 -277 -263 -342 -435 -40 -104 -42
-137 -4 -59 40 82 175 219 290 293 61 40 79 43 59 12 -8 -13 -31 -68 -51 -123
-20 -55 -52 -120 -70 -145 -43 -59 -159 -266 -203 -359 -38 -83 -69 -168 -49
-137 64 101 255 341 264 332 3 -2 -2 -49 -11 -103 -8 -54 -18 -145 -21 -203
l-6 -105 20 50 c11 28 37 100 59 160 75 205 161 383 204 421 13 11 47 38 76
58 l53 38 -54 -71 c-100 -133 -186 -322 -207 -457 -11 -66 -4 -214 10 -214 4
0 12 25 18 55 16 78 85 249 130 322 l39 63 -5 -154 c-3 -104 -1 -155 6 -160 7
-4 13 8 17 31 16 93 67 214 120 283 31 39 31 38 -19 -105 -19 -55 -40 -134
-47 -175 -14 -88 -7 -397 9 -425 12 -22 9 -35 38 170 9 66 20 126 24 133 3 7
7 -52 8 -132 1 -79 9 -190 18 -247 18 -114 73 -288 107 -334 11 -16 32 -52 45
-78 29 -61 37 -56 17 9 -26 85 -55 401 -36 389 6 -3 11 -25 11 -48 1 -107 72
-331 139 -439 34 -55 61 -78 46 -40 -25 65 -35 167 -34 345 l1 192 15 -70 c18
-88 55 -182 68 -175 6 3 8 10 5 15 -8 19 -12 250 -4 305 8 52 8 49 15 -61 9
-151 24 -243 61 -359 34 -105 54 -139 44 -75 -11 72 -18 511 -8 495 5 -8 12
-43 16 -77 10 -91 42 -196 90 -299 41 -86 103 -183 118 -184 3 0 -2 21 -12 48
-10 26 -28 94 -40 152 -11 58 -24 114 -27 125 -3 13 -2 16 4 10 5 -5 15 -30
22 -55 17 -59 75 -189 118 -262 28 -48 37 -57 49 -47 11 9 14 8 14 -8 0 -27
-101 -83 -173 -94 -118 -19 -239 -82 -336 -173 -70 -67 -225 -257 -300 -369
l-49 -72 -194 -107 c-238 -132 -265 -144 -378 -168 -49 -11 -99 -24 -110 -30
-11 -6 -60 -19 -109 -30 -115 -24 -226 -68 -326 -128 -81 -48 -397 -275 -514
-368 -35 -28 -89 -66 -120 -85 -31 -18 -132 -83 -226 -145 -206 -135 -216
-140 -285 -149 -70 -9 -117 -29 -155 -64 -47 -43 -196 -130 -256 -150 -20 -6
-47 -23 -59 -36 -18 -19 -34 -25 -65 -25 -22 0 -52 -8 -65 -17 -14 -10 -106
-46 -205 -80 -269 -92 -383 -137 -560 -218 -88 -40 -182 -81 -208 -90 -47 -18
-72 -37 -129 -102 -15 -16 -68 -54 -118 -84 -50 -29 -124 -83 -164 -119 -40
-36 -106 -93 -147 -127 -139 -118 -160 -139 -162 -164 -2 -30 -10 -37 -193
-164 -84 -57 -154 -111 -157 -118 -3 -8 1 -27 9 -42 14 -27 13 -30 -16 -60
-16 -17 -30 -40 -30 -52 0 -28 52 -71 93 -77 180 -27 359 -26 479 2 47 12 151
45 230 75 78 30 208 76 288 102 80 26 193 72 252 101 59 30 110 54 113 54 3 0
5 -7 5 -15 0 -28 47 -65 82 -65 18 0 67 -10 108 -21 48 -13 123 -22 208 -26
123 -6 134 -5 155 14 34 31 133 92 231 141 85 43 90 47 143 128 62 96 130 238
164 343 33 102 94 165 176 181 32 6 85 20 117 31 33 10 81 19 106 19 59 0 103
28 147 93 33 50 63 156 63 227 0 37 3 42 33 55 34 15 336 114 732 240 258 83
362 126 477 200 79 51 220 167 265 218 19 21 79 56 178 102 82 39 188 92 235
119 122 70 352 178 360 169 4 -4 14 -33 23 -63 23 -81 94 -286 108 -312 7 -13
77 -117 156 -233 183 -265 235 -352 269 -446 15 -40 40 -87 55 -104 31 -33 60
-95 78 -168 26 -104 41 -205 41 -267 -1 -60 -5 -73 -58 -167 -92 -164 -115
-193 -156 -193 -90 0 -174 -34 -162 -66 4 -11 -6 -14 -42 -14 -61 0 -214 -25
-241 -39 -24 -13 -41 -42 -41 -70 0 -16 -9 -21 -47 -26 -159 -20 -230 -47
-263 -99 -25 -41 -28 -127 -5 -150 9 -8 15 -33 15 -58 0 -37 -4 -45 -30 -60
-28 -16 -30 -21 -30 -73 0 -33 -7 -69 -17 -88 -21 -41 -30 -166 -14 -196 11
-19 8 -26 -20 -52 l-33 -31 -42 -291 c-29 -193 -40 -296 -34 -308 5 -9 9 -53
8 -96 -1 -127 38 -184 159 -230 36 -13 57 -27 55 -35 -2 -7 -19 -49 -38 -93
-19 -45 -34 -88 -34 -97 0 -9 -9 -19 -19 -23 -31 -10 -40 -27 -60 -126 -10
-52 -29 -119 -42 -149 -12 -30 -23 -75 -24 -100 -1 -25 -9 -62 -18 -82 l-17
-38 1910 0 1910 0 -6 57 c-31 318 -76 530 -147 688 -21 46 -43 119 -52 170 -9
50 -24 133 -34 186 -17 93 -17 98 0 130 10 19 18 43 19 54 1 35 14 45 76 56
32 6 86 24 119 40 100 49 136 117 109 206 -8 25 -14 52 -14 59 0 7 30 22 68
34 37 12 75 31 85 42 18 22 22 64 7 88 -6 10 -3 20 11 33 23 21 23 35 4 106
-8 30 -10 60 -6 65 5 6 11 72 14 147 6 161 2 172 -93 245 -36 29 -60 55 -60
66 0 35 -18 55 -112 118 -66 45 -128 76 -222 112 -72 27 -140 57 -151 67 -11
10 -60 42 -110 70 -49 29 -99 64 -111 77 -21 26 -73 43 -129 44 -23 0 -62 27
-170 116 -77 63 -161 129 -187 146 -27 16 -48 31 -48 32 0 0 7 39 15 86 9 50
15 146 15 232 0 182 19 295 54 321 33 24 129 144 154 192 46 93 64 174 65 305
1 117 -2 131 -32 220 -59 168 -106 217 -299 313 -123 62 -198 109 -253 159
-32 29 -38 42 -48 103 -17 112 -38 169 -86 233 -78 104 -131 128 -311 142
-196 15 -259 29 -364 85 -70 38 -95 56 -95 71 0 16 6 18 33 16 27 -3 44 6 112
62 63 53 86 66 113 66 32 0 35 3 41 38 4 29 16 46 46 71 22 17 40 30 40 27 0
-12 -56 -134 -73 -159 -11 -16 -17 -30 -14 -33 8 -8 95 95 127 152 17 30 33
54 35 54 10 0 -21 -67 -52 -112 -18 -28 -32 -52 -30 -54 2 -2 31 25 65 59 43
46 72 88 100 148 21 46 50 98 64 114 13 17 43 57 65 90 23 33 58 76 78 95 l37
35 -8 -40 c-3 -22 -13 -52 -20 -66 -15 -30 -77 -88 -122 -115 -18 -10 -32 -22
-32 -26 0 -13 38 -9 75 6 42 18 43 13 9 -39 -30 -46 132 116 204 205 72 87
131 234 133 330 l1 35 10 -30 c5 -16 10 -97 10 -180 1 -133 -2 -160 -25 -235
-24 -79 -24 -83 -5 -60 83 103 123 312 99 525 -16 142 -44 234 -110 360 -32
61 -61 129 -65 150 -4 22 -18 72 -30 110 -13 39 -26 104 -29 145 -9 117 -80
295 -164 413 -24 34 -28 45 -15 38 70 -37 195 -255 237 -412 13 -51 26 -94 29
-96 7 -7 -1 244 -8 256 -4 6 -2 11 3 11 30 0 123 -168 146 -263 l13 -52 1 40
c0 22 -6 62 -14 89 -8 27 -15 62 -15 77 0 44 -55 172 -110 259 -28 42 -50 82
-50 89 0 25 -59 139 -104 199 -25 34 -46 63 -46 65 0 8 143 -14 216 -33 94
-24 266 -106 313 -150 18 -17 35 -29 38 -27 6 7 -61 116 -110 177 -50 64 -129
127 -205 165 -73 37 -230 75 -339 82 -51 3 -93 9 -93 13 0 21 292 63 437 63
68 0 121 2 120 4 -2 2 -71 17 -153 34 -138 29 -160 31 -299 26 -126 -4 -164
-9 -240 -32 -142 -43 -134 -42 -105 -10 81 89 306 256 404 299 31 14 56 28 56
32 0 3 -8 3 -17 -1 -10 -4 -74 -13 -143 -21 -175 -21 -303 -76 -417 -179 -28
-25 -54 -45 -57 -45 -3 0 -6 44 -6 98 0 53 -7 127 -15 164 -15 72 -49 158 -62
158 -4 0 -9 -51 -10 -113 -1 -61 -6 -125 -11 -142 -11 -34 -14 -28 -32 59 -13
63 -68 179 -115 240 -30 39 -79 79 -87 70z m-497 -271 c16 -3 29 -10 29 -15 0
-6 -6 -8 -14 -5 -8 3 -33 11 -55 17 -23 6 -41 13 -41 16 0 4 12 3 26 0 15 -4
39 -10 55 -13z m90 -105 c10 -18 9 -20 -6 -14 -9 3 -28 9 -42 12 -18 5 -21 9
-11 15 23 15 47 10 59 -13z m-191 -21 c30 -11 96 -46 145 -78 90 -59 92 -73 4
-29 -44 22 -79 22 -79 1 0 -5 20 -26 46 -47 80 -66 70 -79 -16 -19 -45 30
-122 75 -171 98 -48 23 -88 45 -89 49 0 3 14 9 30 13 25 5 30 11 25 26 -6 17
-3 19 22 13 15 -4 53 -16 83 -27z m-154 -145 c-11 -10 -45 10 -39 24 5 13 8
13 24 -2 11 -10 17 -19 15 -22z m14 -107 c22 -26 3 -29 -47 -7 l-48 21 41 1
c25 0 47 -6 54 -15z m-70 -43 c43 -21 54 -31 52 -47 -5 -29 -6 -29 -59 -10
-26 10 -77 28 -113 41 -36 13 -58 24 -49 24 9 0 22 7 30 16 17 20 64 12 139
-24z m-170 -92 c15 -5 -1 -6 -40 -3 -36 3 -67 7 -69 9 -8 7 84 2 109 -6z m124
-136 c108 -19 164 -40 149 -55 -8 -8 -39 -7 -110 4 -54 9 -120 19 -148 22 -27
4 -61 9 -74 12 l-24 6 24 13 c32 18 76 17 183 -2z m-81 -51 c32 -9 54 -19 50
-23 -4 -4 -66 -4 -138 1 -118 8 -180 6 -242 -7 -42 -8 -23 13 30 35 45 18 65
20 147 15 52 -3 121 -12 153 -21z m145 -129 c34 -16 42 -34 17 -34 -8 0 -15
-4 -15 -9 0 -5 -44 -17 -97 -26 -99 -18 -330 -79 -413 -110 -25 -9 -74 -18
-110 -21 l-65 -5 40 23 c56 31 180 86 248 110 32 11 56 22 54 24 -4 4 -127
-32 -249 -74 -32 -11 -58 -18 -58 -16 0 10 92 48 196 80 235 71 387 91 452 58z
m712 -73 c0 -5 -24 -17 -52 -26 -29 -9 -61 -21 -71 -26 -11 -6 -20 -9 -22 -7
-5 5 29 44 50 56 24 14 95 16 95 3z m73 -300 c33 -22 79 -50 103 -63 46 -24
49 -31 35 -88 -6 -28 -4 -39 11 -54 10 -11 18 -22 18 -26 0 -3 -30 -14 -67
-24 -38 -10 -104 -35 -148 -55 -45 -21 -93 -41 -108 -45 -15 -3 -63 -31 -108
-62 -100 -68 -125 -67 -166 4 -15 26 -30 49 -34 52 -15 11 -20 93 -9 143 18
83 30 104 61 117 16 7 46 26 66 41 20 16 40 29 46 29 6 0 19 7 28 16 27 24
117 53 169 53 36 0 57 -7 103 -38z m-1023 5 c0 -9 -81 -68 -86 -63 -3 3 13 19
37 36 42 31 49 35 49 27z m109 -93 c-41 -43 -87 -94 -102 -113 l-27 -35 6 35
c14 81 22 95 82 129 78 45 106 60 111 61 3 0 -29 -35 -70 -77z m-89 22 c-13
-14 -26 -22 -29 -19 -3 3 5 14 19 24 34 27 38 25 10 -5z m160 -129 c0 -8 5
-16 11 -18 12 -4 -40 -99 -58 -105 -18 -6 -35 57 -21 76 43 58 68 75 68 47z
m971 -252 c-6 -32 -11 -69 -11 -82 0 -24 1 -25 20 -7 11 10 20 24 20 32 0 7 5
13 11 13 13 0 7 -85 -13 -172 l-13 -58 -34 21 -33 20 5 82 c4 76 42 225 53
214 3 -3 1 -31 -5 -63z m215 -36 c-9 -40 -18 -89 -20 -108 -11 -98 -19 -130
-32 -130 -19 0 -18 58 0 107 8 21 17 56 21 78 9 55 38 150 43 136 2 -6 -4 -43
-12 -83z m-402 -45 c-9 -21 -34 -91 -57 -156 -31 -87 -45 -117 -57 -115 -21 5
-14 70 15 135 23 50 101 173 111 173 2 0 -3 -17 -12 -37z m330 -78 c4 -12 -15
-79 -26 -91 -4 -3 -14 6 -23 20 -18 28 -17 39 12 123 l18 51 7 -45 c4 -25 9
-51 12 -58z m-509 -19 c-14 -47 -30 -86 -35 -86 -17 0 -23 51 -11 90 12 42 63
109 69 92 2 -6 -9 -49 -23 -96z m847 80 c4 -6 6 -24 3 -41 -2 -16 -7 -56 -10
-87 -6 -56 -21 -84 -29 -56 -2 7 -7 57 -10 111 -6 98 -6 98 17 91 12 -4 25
-12 29 -18z m194 -61 c23 -48 33 -135 16 -135 -26 0 -43 32 -57 105 -9 44 -18
89 -22 100 l-6 20 23 -20 c13 -11 33 -42 46 -70z m-1115 -17 c-6 -17 -11 -42
-11 -54 0 -29 -11 -31 -27 -4 -14 22 -9 41 21 84 23 34 33 20 17 -26z m1009
-4 c16 -47 4 -114 -20 -114 -10 0 -20 10 -23 23 -3 12 -10 40 -16 62 -8 32 -7
43 5 57 22 23 41 13 54 -28z m-1066 -114 c26 -25 14 -37 -16 -16 -47 33 -95
13 -137 -55 -27 -43 -27 -30 -1 20 40 79 105 101 154 51z m336 -10 c0 -29 -11
-50 -26 -50 -17 0 -18 33 -3 61 12 23 29 16 29 -11z m164 -237 c21 -50 46 -99
57 -109 23 -21 23 -23 0 52 -19 60 -24 104 -22 219 1 74 14 61 30 -30 7 -38
27 -104 45 -145 49 -110 75 -174 71 -178 -5 -6 -221 109 -251 134 -24 18 -26
26 -28 105 0 48 5 105 14 134 l14 50 17 -70 c9 -38 33 -111 53 -162z m211 162
c26 -2 102 -29 117 -42 10 -9 21 -39 25 -67 l7 -51 9 43 c5 24 11 42 14 39 11
-12 -28 -172 -61 -248 -20 -46 -36 -85 -36 -88 0 -3 15 10 34 28 l34 33 -10
-44 c-6 -24 -17 -59 -25 -78 -10 -23 -14 -66 -14 -132 1 -105 -2 -112 -53
-110 -16 0 -26 -2 -21 -6 12 -8 13 -91 2 -93 -4 0 -25 2 -47 6 -44 7 -133 -20
-127 -39 2 -6 25 -18 51 -27 52 -18 51 -23 -6 -34 l-37 -7 21 -29 c18 -24 20
-32 10 -54 -16 -35 -54 -33 -144 9 -78 36 -171 107 -174 134 -2 8 1 23 6 33 7
12 2 34 -15 74 -14 31 -23 61 -20 66 4 5 1 9 -6 9 -6 0 -9 8 -6 20 3 11 2 18
-2 15 -4 -2 -8 16 -9 40 0 25 3 45 7 45 4 0 17 -14 30 -31 13 -17 25 -29 27
-27 2 3 -5 36 -16 74 -25 85 -25 82 3 58 52 -46 59 -47 28 -5 -31 43 -79 176
-68 188 3 3 23 -13 45 -35 48 -49 88 -76 96 -64 3 5 -8 22 -24 37 -17 16 -30
39 -30 52 0 33 16 28 24 -7 7 -38 48 -60 76 -42 11 7 21 8 25 2 3 -5 17 -2 33
7 24 14 30 14 65 0 37 -16 52 -50 25 -60 -7 -2 5 -8 27 -12 29 -6 46 -4 68 9
16 9 41 16 55 16 l27 1 -26 14 c-32 17 -35 34 -45 202 -6 120 3 240 15 198 3
-11 11 -20 16 -20z m-760 15 c3 -5 2 -10 -4 -10 -5 0 -13 5 -16 10 -3 6 -2 10
4 10 5 0 13 -4 16 -10z m408 -92 c5 -71 3 -88 -8 -88 -8 0 -17 4 -20 10 -5 8
15 174 20 167 1 -1 5 -41 8 -89z m-538 25 c-3 -14 -6 -55 -6 -90 0 -59 3 -68
44 -126 25 -34 55 -71 67 -82 23 -21 50 -66 50 -85 0 -13 -33 5 -74 40 l-30
25 18 -30 17 -30 -20 23 c-11 13 -17 30 -14 39 4 10 2 14 -5 10 -24 -15 -78
180 -67 244 10 63 17 89 22 89 3 0 2 -12 -2 -27z m173 -2 c3 -8 -1 -12 -9 -9
-7 2 -15 10 -17 17 -3 8 1 12 9 9 7 -2 15 -10 17 -17z m287 -153 c4 -39 -6
-47 -34 -29 -13 9 -11 61 7 131 5 22 7 19 14 -20 5 -25 10 -62 13 -82z m-345
94 c0 -8 -52 -42 -64 -42 -3 0 -6 11 -6 25 0 22 4 25 35 25 19 0 35 -4 35 -8z
m8 -114 c-5 -29 -11 -54 -12 -55 -1 -1 -12 14 -26 34 l-24 35 28 24 c15 14 31
22 35 19 5 -2 4 -28 -1 -57z m432 15 c0 -2 -5 -14 -12 -26 -10 -19 -9 -20 4
-9 13 10 17 10 22 -3 3 -8 13 -15 23 -15 20 -1 75 -29 57 -30 -6 0 -33 7 -60
16 -27 9 -56 18 -64 20 -11 4 -12 7 -2 13 13 8 6 41 -9 41 -5 0 -9 7 -9 15 0
14 3 13 25 -1 14 -9 25 -18 25 -21z m29 -114 c11 -19 11 -21 -4 -15 -9 3 -19
6 -21 6 -2 0 -4 7 -4 15 0 21 13 19 29 -6z m630 -95 c-16 -19 -63 -44 -84 -44
-8 0 -15 8 -15 17 0 9 3 13 6 10 4 -3 18 3 32 13 13 11 36 20 50 20 21 0 23
-2 11 -16z m-1079 -32 c0 -13 -12 -22 -22 -16 -10 6 -1 24 13 24 5 0 9 -4 9
-8z m1064 -79 c-45 -80 -97 -126 -60 -54 16 30 74 101 82 101 3 0 -7 -21 -22
-47z m-1084 27 c0 -5 -2 -10 -4 -10 -3 0 -8 5 -11 10 -3 6 -1 10 4 10 6 0 11
-4 11 -10z m998 -63 c2 -9 -4 -20 -14 -24 -20 -8 -54 29 -54 59 0 20 0 20 32
1 18 -11 34 -27 36 -36z m-1055 -62 c-4 -50 -2 -75 5 -75 6 0 13 6 15 13 3 6
6 -12 6 -40 1 -49 -1 -53 -21 -53 -22 0 -40 21 -92 102 l-18 27 51 51 c27 27
52 50 55 50 2 0 2 -34 -1 -75z m1043 -74 c-22 -42 -162 -207 -182 -215 -37
-14 -35 -3 7 42 26 26 70 76 98 112 29 36 59 73 68 83 21 28 27 14 9 -22z
m-829 -139 c43 -91 209 -354 242 -386 17 -17 31 -39 31 -51 0 -11 5 -26 12
-33 6 -6 13 -21 15 -32 2 -17 0 -18 -23 -10 -52 20 -72 36 -181 146 -95 96
-227 200 -275 216 -10 4 -9 9 3 21 9 8 31 52 49 96 18 45 36 79 40 76 4 -3 13
2 20 10 18 22 37 7 67 -53z m583 4 c0 -22 -14 -27 -50 -19 -31 6 -32 7 -15 20
25 17 65 17 65 -1z m130 -71 c0 -8 -7 -15 -16 -15 -14 0 -14 3 -4 15 7 8 14
15 16 15 2 0 4 -7 4 -15z m-820 -167 c75 -34 154 -99 184 -150 21 -38 43 -109
61 -200 3 -16 10 -28 16 -28 7 0 9 10 5 25 -4 14 -4 25 -2 25 9 0 64 -188 76
-260 12 -69 60 -220 79 -245 7 -9 22 -60 36 -128 12 -61 6 -286 -11 -378 -9
-52 -19 -88 -21 -81 -3 6 -11 12 -18 12 -7 0 -28 12 -45 26 -17 15 -42 28 -56
30 l-24 2 0 -101 c0 -81 -4 -109 -21 -143 -22 -47 -90 -114 -115 -114 -39 0
-181 88 -256 159 -43 40 -76 76 -73 79 3 3 10 1 17 -6 8 -8 17 -8 31 0 16 8
23 7 31 -4 20 -27 108 -68 122 -57 8 7 14 6 19 -1 4 -7 19 -9 35 -5 23 5 30 2
35 -14 3 -10 3 -31 -1 -45 -6 -25 -4 -26 35 -27 23 -1 47 -2 54 -3 21 -2 10
53 -23 102 -75 114 -90 313 -28 379 25 27 74 30 104 8 28 -21 31 -19 43 33 26
115 33 204 20 249 -7 27 -10 72 -6 116 6 79 -7 124 -40 148 -28 20 -44 54 -41
86 5 50 -28 40 -100 -31 -89 -87 -147 -129 -205 -150 -27 -10 -67 -33 -90 -52
-23 -19 -69 -51 -101 -72 -132 -84 -258 -185 -286 -231 -17 -26 -25 -48 -19
-50 6 -2 -42 -32 -108 -67 -181 -98 -343 -178 -349 -172 -5 5 14 24 85 85 26
23 34 37 35 67 1 52 -13 54 -47 6 -15 -22 -53 -56 -83 -76 -30 -20 -60 -46
-66 -58 -41 -77 -222 -202 -280 -193 -39 5 -67 -9 -248 -131 -68 -47 -131 -87
-140 -90 -8 -3 -29 -18 -47 -33 -17 -15 -62 -44 -100 -65 -37 -20 -75 -43 -83
-50 -18 -14 -250 -88 -256 -81 -3 3 7 7 21 11 14 4 25 13 25 21 0 24 -133 20
-189 -6 -25 -11 -58 -22 -75 -24 -17 -3 -57 -9 -88 -13 -32 -5 -66 -16 -76
-25 -17 -16 -22 -16 -55 -2 -21 8 -53 32 -74 53 -20 20 -29 28 -21 17 33 -44
24 -38 -41 25 -72 71 -113 92 -209 107 l-53 8 178 116 c98 64 211 137 252 163
41 26 104 71 140 100 120 96 404 300 486 348 96 58 209 103 308 123 39 9 90
22 112 30 22 8 67 19 100 25 65 13 190 66 313 135 318 176 287 154 354 251 90
130 241 316 296 364 56 51 201 125 280 145 86 22 214 14 282 -17z m987 -187
c169 -11 223 -33 288 -122 64 -87 108 -219 73 -219 -6 0 -3 -10 8 -22 10 -12
-7 0 -38 27 -54 46 -80 74 -40 44 9 -7 26 -20 38 -29 11 -8 5 0 -14 17 -19 18
-39 30 -44 27 -5 -3 -17 1 -26 9 -26 23 -299 206 -372 250 -49 29 -58 37 -35
33 17 -4 89 -10 162 -15z m-489 -152 c29 -6 63 -20 74 -31 17 -17 25 -19 39
-10 13 8 19 8 22 -1 3 -7 6 -2 6 9 1 29 18 34 116 34 61 0 86 -4 95 -15 7 -8
26 -15 43 -15 31 0 100 -36 93 -49 -9 -14 32 -53 88 -84 32 -18 58 -37 58 -42
-1 -16 38 -53 71 -66 18 -7 56 -36 85 -64 43 -43 52 -57 52 -87 0 -38 -26 -69
-73 -87 -36 -14 -122 -14 -148 -1 -13 8 -19 7 -19 0 0 -6 -8 -9 -17 -6 -10 3
-46 8 -81 11 -134 13 -310 92 -397 180 -43 43 -274 356 -283 385 -2 6 25 -3
59 -20 34 -16 87 -34 117 -41z m-939 -704 c-9 -8 -79 -35 -79 -30 0 7 53 34
69 35 8 0 12 -2 10 -5z m2171 -1112 c0 -71 -7 -168 -16 -218 -23 -140 -20
-253 10 -365 26 -93 40 -127 105 -242 39 -69 78 -233 60 -254 -6 -8 -16 -11
-23 -7 -6 4 -21 6 -32 5 -15 -2 -29 7 -44 27 -34 49 -56 41 -89 -32 -38 -84
-69 -99 -136 -67 -26 13 -49 30 -53 38 -10 28 18 154 55 246 32 79 38 103 39
181 1 50 7 102 12 116 14 35 0 143 -21 167 -24 26 -31 74 -17 117 7 20 16 71
20 113 8 84 33 160 68 209 12 17 22 33 22 36 0 3 4 17 10 31 21 56 30 25 30
-101z m-547 -203 c14 0 16 -4 8 -17 -23 -39 -40 -54 -67 -59 -64 -12 -230 -20
-241 -12 -7 6 -25 8 -40 7 -15 -2 -33 0 -39 3 -6 4 -11 0 -11 -8 0 -11 8 -13
31 -9 23 5 27 4 16 -4 -13 -9 -13 -11 0 -11 19 0 56 -40 37 -40 -8 0 -7 -3 2
-9 10 -6 28 -3 55 11 23 12 42 20 43 20 2 -1 22 5 45 12 24 7 53 10 65 7 20
-5 21 -9 10 -27 -6 -12 -25 -38 -41 -58 -30 -38 -50 -106 -40 -138 5 -16 11
-18 32 -13 15 4 24 3 20 -1 -4 -4 -2 -14 5 -22 8 -11 8 -14 0 -9 -6 4 -14 3
-18 -3 -15 -25 31 -7 73 29 26 21 58 42 72 46 14 4 39 24 55 43 33 39 85 65
110 56 22 -9 31 -30 45 -112 13 -71 10 -114 -16 -257 -7 -41 3 -78 21 -71 8 3
15 1 15 -5 0 -5 -6 -12 -12 -14 -9 -4 -14 -38 -15 -116 -2 -103 -1 -115 23
-154 21 -36 24 -52 20 -101 -4 -56 -5 -59 -36 -67 -20 -5 -35 -5 -39 1 -3 5
-23 15 -43 21 -21 7 -38 16 -38 20 0 4 -30 20 -66 36 -74 32 -97 60 -68 82 10
7 23 13 30 13 7 0 15 4 19 10 9 15 -25 111 -57 157 -15 23 -31 56 -34 73 -4
17 -11 33 -15 36 -13 8 -77 -34 -91 -59 -28 -50 -57 -301 -39 -335 16 -30 6
-45 -42 -66 -35 -15 -52 -17 -102 -10 -77 11 -103 7 -110 -17 -5 -16 -13 -19
-33 -15 -15 3 -76 8 -137 11 -157 9 -410 52 -467 81 -45 23 -88 69 -88 95 0
19 123 249 172 320 24 35 67 110 96 166 44 85 52 110 52 155 0 56 -23 210 -40
267 -12 41 -6 50 17 29 10 -9 52 -33 93 -54 67 -34 83 -38 150 -39 64 0 82 4
122 28 30 18 61 27 88 27 25 0 39 4 35 10 -3 6 3 10 13 10 11 0 39 7 63 16 47
17 261 45 294 38 11 -2 28 -4 38 -4z m-53 -90 c0 -5 -12 -10 -27 -9 l-28 1 25
8 c14 4 26 8 28 9 1 1 2 -3 2 -9z m706 -140 c34 -25 100 -76 148 -115 l87 -70
-43 -14 c-24 -8 -56 -22 -71 -31 -28 -17 -29 -17 -53 6 -42 43 -104 142 -104
168 0 25 -41 66 -66 66 -9 0 -14 12 -14 35 l0 35 28 -17 c15 -10 54 -38 88
-63z m-6166 -182 c37 -25 57 -58 24 -39 -33 19 -79 61 -68 61 6 0 26 -10 44
-22z m-42 -119 c-2 -6 -8 -10 -13 -10 -5 0 -11 4 -13 10 -2 6 4 11 13 11 9 0
15 -5 13 -11z m4472 -175 c0 -3 -8 -19 -17 -36 -17 -29 -20 -30 -76 -26 -53 4
-89 20 -75 34 23 22 168 47 168 28z m-55 -86 c12 -12 -36 -89 -68 -108 -36
-23 -110 -26 -220 -10 -66 10 -147 42 -147 59 0 21 45 44 112 56 73 14 310 16
323 3z m1992 -118 c12 -36 21 -76 21 -90 0 -14 -9 4 -20 40 -12 40 -29 73 -44
86 -25 21 -22 37 6 32 9 -2 24 -30 37 -68z m-2295 -14 c109 -21 148 -41 148
-72 0 -14 -10 -38 -22 -53 -13 -15 -29 -55 -37 -89 -9 -41 -18 -62 -28 -62 -8
0 -12 4 -9 9 12 19 -44 28 -152 23 -88 -4 -112 -8 -108 -18 16 -42 -153 -14
-226 37 -25 18 -28 27 -28 74 0 43 5 60 25 84 56 66 270 99 437 67z m2104
-176 c8 0 14 -1 15 -2 0 -2 4 -38 7 -81 6 -61 5 -76 -5 -73 -7 3 -13 -1 -13
-9 0 -29 -56 -95 -97 -115 -47 -24 -96 -29 -116 -12 -8 7 -15 36 -16 74 -2 69
-6 78 -27 78 -13 0 -15 -13 -12 -70 l3 -70 -38 0 c-46 0 -104 -25 -118 -51
-37 -70 -41 87 -4 200 6 19 4 23 -8 18 -9 -3 -18 1 -21 8 -7 20 12 29 30 14
21 -17 120 6 150 36 26 26 51 38 56 26 2 -5 26 -6 55 -4 42 4 59 12 90 42 38
36 38 36 46 14 5 -13 15 -23 23 -23z m221 18 c-3 -7 -5 -2 -5 12 0 14 2 19 5
13 2 -7 2 -19 0 -25z m575 -51 c-7 -8 -9 -16 -6 -20 3 -3 -4 -11 -16 -17 -12
-6 -24 -9 -28 -6 -3 3 0 6 7 6 7 0 9 5 6 10 -4 6 4 19 17 29 25 21 37 19 20
-2z m-1172 -31 c0 -2 -7 -6 -15 -10 -8 -3 -15 -1 -15 4 0 6 7 10 15 10 8 0 15
-2 15 -4z m-2080 -55 c0 -4 20 -16 45 -25 25 -10 45 -22 45 -26 0 -5 21 -15
48 -23 l47 -13 -100 -8 c-174 -14 -171 -16 -167 78 l4 66 39 -20 c21 -11 39
-24 39 -29z m290 -137 c83 -24 174 -106 185 -166 11 -61 -3 -108 -43 -147 -21
-19 -31 -32 -25 -27 9 5 11 2 6 -9 -4 -12 -8 -13 -13 -5 -5 8 -22 7 -65 -5
-43 -13 -86 -16 -175 -14 -110 4 -117 3 -109 -13 14 -26 -14 -23 -79 7 -116
54 -152 102 -152 203 0 111 52 172 168 192 74 14 229 5 302 -16z m2722 -66
c-5 -35 -17 -48 -43 -48 -34 0 -29 29 9 55 20 14 37 25 38 25 0 0 -2 -15 -4
-32z m-1221 -206 c95 -49 118 -144 55 -218 -58 -68 -117 -92 -341 -139 -38 -8
-171 17 -223 42 -84 40 -112 106 -78 187 38 91 210 153 427 155 98 1 111 -1
160 -27z m-865 -3 c73 -22 143 -65 169 -101 9 -13 15 -44 15 -73 0 -43 -5 -56
-28 -78 -48 -46 -141 -77 -229 -77 -94 0 -307 24 -346 39 -16 6 -32 9 -37 6
-5 -3 -18 7 -30 22 -20 25 -22 36 -17 105 7 100 27 131 100 152 77 22 91 23
218 25 93 1 131 -3 185 -20z m1137 -38 c67 -27 154 -64 192 -82 l70 -32 -38
-13 c-51 -18 -112 -25 -222 -27 -72 -2 -89 -5 -87 -16 3 -11 0 -12 -11 -2 -22
18 -59 110 -59 146 0 31 17 75 28 75 3 0 61 -22 127 -49z m-2210 -22 c4 -21
17 -39 29 -39 6 0 5 7 -3 17 -12 14 -10 14 14 -1 30 -20 35 -29 11 -19 -14 5
-14 2 2 -23 22 -34 20 -32 103 -84 73 -45 72 -46 -12 -24 -78 20 -133 48 -148
75 -19 37 -29 81 -23 106 7 25 23 19 27 -8z m543 -145 c-3 -8 -13 -14 -21 -14
-15 0 -15 1 -1 16 9 8 17 27 17 42 l2 27 4 -28 c3 -16 2 -35 -1 -43z m3138
-23 c-9 -40 -43 -80 -84 -101 -22 -11 -41 -20 -42 -20 -2 0 -4 20 -5 45 -2 43
0 46 43 75 24 17 52 43 61 57 l17 26 8 -29 c5 -16 6 -40 2 -53z m-1654 5 c0
-8 -9 -24 -20 -37 l-20 -24 17 37 c20 41 23 45 23 24z m-1533 -2 c-3 -3 -12
-4 -19 -1 -8 3 -5 6 6 6 11 1 17 -2 13 -5z m2873 -232 c-7 -15 -19 -41 -27
-58 -8 -17 -27 -38 -43 -47 -37 -22 -43 -21 -30 3 8 15 6 27 -10 55 -26 46
-25 50 9 64 15 7 44 28 62 47 l34 35 9 -36 c6 -25 4 -45 -4 -63z m-2665 27
c49 -50 49 -51 20 -44 -52 12 -95 44 -95 71 0 36 20 29 75 -27z m810 -49 c3
-5 1 -10 -4 -10 -6 0 -11 5 -11 10 0 6 2 10 4 10 3 0 8 -4 11 -10z m1355 -360
c-6 -11 -15 -18 -19 -16 -5 3 -17 -4 -27 -17 l-19 -22 23 19 c12 11 22 14 22
8 0 -6 -15 -21 -32 -33 -18 -13 -27 -16 -21 -8 7 9 10 18 7 21 -3 4 -8 21 -11
40 -2 18 -9 35 -14 36 -5 2 10 19 34 37 25 19 48 42 53 52 6 13 10 2 12 -39 2
-32 -2 -67 -8 -78z m-2900 14 c58 -35 82 -57 39 -34 -11 6 -25 10 -31 8 -15
-5 48 -43 85 -52 27 -6 39 7 15 18 -7 3 7 2 32 -1 25 -3 48 -11 52 -17 9 -13
10 -68 2 -90 -12 -31 -116 -11 -220 42 -63 32 -92 99 -86 197 l2 30 26 -32
c14 -18 52 -49 84 -69z m703 -295 c23 -11 65 -28 92 -36 73 -22 176 -75 172
-87 -5 -15 -201 -13 -255 3 -23 6 -57 26 -75 43 -18 17 -24 25 -14 17 18 -12
18 -10 12 34 -9 56 1 59 68 26z"/>
<path d="M6452 6645 c0 -16 2 -22 5 -12 2 9 2 23 0 30 -3 6 -5 -1 -5 -18z"/>
<path d="M6581 6713 c1 -34 2 -35 9 -13 11 36 11 50 0 50 -5 0 -10 -17 -9 -37z"/>
<path d="M6141 6594 c0 -11 3 -14 6 -6 3 7 2 16 -1 19 -3 4 -6 -2 -5 -13z"/>
<path d="M6909 5425 c106 -72 140 -86 205 -86 28 0 30 7 7 39 -31 44 -104 76
-181 79 -36 1 -69 2 -73 3 -5 0 -6 4 -2 9 7 12 -1 16 -40 25 -20 5 9 -19 84
-69z"/>
<path d="M7235 2310 c3 -5 11 -10 16 -10 6 0 7 5 4 10 -3 6 -11 10 -16 10 -6
0 -7 -4 -4 -10z"/>
<path d="M6740 2270 c0 -5 4 -10 9 -10 6 0 13 5 16 10 3 6 -1 10 -9 10 -9 0
-16 -4 -16 -10z"/>
</g>
</svg>
