<?xml version="1.0" standalone="no"?>
<!DOCTYPE svg PUBLIC "-//W3C//DTD SVG 20010904//EN"
 "http://www.w3.org/TR/2001/REC-SVG-20010904/DTD/svg10.dtd">
<svg version="1.0" xmlns="http://www.w3.org/2000/svg"
 width="994.000000pt" height="1280.000000pt" viewBox="0 0 994.000000 1280.000000"
 preserveAspectRatio="xMidYMid meet">

<g transform="translate(0.000000,1280.000000) scale(0.100000,-0.100000)"
fill="#000000" stroke="none">
<path d="M3735 12780 c-101 -15 -296 -96 -392 -161 -77 -53 -193 -149 -257
-214 -205 -206 -445 -646 -530 -973 -15 -57 -25 -109 -23 -115 3 -11 87 191
87 211 0 6 7 13 16 16 13 5 15 2 11 -16 -3 -13 -18 -68 -32 -123 -29 -111 -44
-307 -30 -391 l9 -49 8 73 c9 82 27 131 28 74 0 -62 18 -23 25 55 4 43 13 92
20 108 12 28 13 22 14 -70 1 -121 15 -237 42 -354 35 -152 122 -440 131 -435
4 3 8 30 8 60 0 60 6 63 32 12 32 -64 110 -233 112 -243 1 -5 5 -15 9 -21 3
-6 -3 -20 -15 -30 -11 -11 -40 -48 -63 -84 -23 -36 -52 -74 -64 -84 -11 -11
-21 -25 -21 -33 0 -7 -5 -13 -10 -13 -6 0 -10 -6 -8 -12 1 -7 -14 -43 -35 -79
-20 -36 -37 -71 -37 -77 0 -6 -11 -19 -25 -28 -30 -20 -31 -24 -5 -52 22 -23
26 -62 9 -79 -7 -7 -13 -59 -15 -125 -2 -62 -7 -150 -12 -196 -7 -76 -6 -83 9
-79 23 6 32 -17 29 -78 -1 -27 -5 -110 -9 -183 l-6 -134 -35 49 c-70 98 -114
168 -142 230 -16 36 -34 63 -43 63 -50 0 39 356 138 555 61 124 193 309 301
423 22 23 36 42 31 42 -14 0 -145 -147 -207 -230 -51 -70 -298 -200 -508 -268
-69 -23 -240 -72 -380 -110 -420 -114 -607 -192 -770 -318 -75 -59 -200 -239
-184 -266 4 -7 3 -8 -4 -4 -12 7 -16 -5 -13 -33 2 -7 -2 -10 -7 -7 -13 8 -42
-81 -77 -234 -25 -107 -27 -125 -21 -275 5 -164 14 -232 41 -345 30 -120 33
-135 49 -190 9 -30 20 -90 26 -132 5 -42 26 -135 46 -205 34 -122 36 -133 30
-238 l-5 -110 55 -113 c48 -95 55 -119 52 -157 -2 -29 1 -46 9 -50 7 -2 13
-19 13 -38 0 -48 77 -140 168 -200 48 -33 72 -55 72 -68 0 -41 -47 -33 -127
21 -24 17 -48 30 -53 30 -17 0 11 -57 45 -90 31 -30 43 -34 97 -38 75 -4 95
-9 82 -22 -5 -5 -37 -10 -71 -11 -62 -2 -63 -3 -63 -31 0 -21 13 -42 46 -76
34 -34 42 -48 31 -50 -9 -2 -25 2 -36 8 -16 8 -21 8 -21 -1 0 -22 52 -94 86
-119 18 -14 34 -31 34 -39 0 -10 -7 -8 -23 7 -13 12 -28 22 -34 22 -16 0 -83
70 -84 88 0 9 -3 12 -5 6 -8 -20 35 -81 77 -110 32 -22 50 -47 82 -114 39 -81
41 -91 45 -196 l4 -111 -58 -69 c-32 -38 -61 -71 -64 -74 -66 -62 -267 -390
-305 -497 -13 -40 -41 -157 -61 -260 -42 -215 -60 -279 -152 -527 -62 -166
-70 -182 -106 -208 -33 -24 -43 -40 -62 -99 -12 -38 -46 -106 -75 -150 -28
-44 -73 -126 -99 -182 -25 -56 -59 -122 -76 -146 -16 -24 -36 -58 -46 -75 -9
-17 -43 -60 -76 -94 -32 -35 -81 -100 -108 -145 -27 -47 -73 -105 -107 -137
-57 -54 -59 -57 -68 -125 -5 -38 -12 -227 -15 -420 -10 -554 13 -888 110
-1605 8 -58 20 -148 26 -200 7 -52 20 -142 31 -200 15 -89 77 -450 95 -557 l5
-33 2609 0 c1956 0 2610 3 2610 11 0 7 -15 64 -34 128 -19 64 -53 189 -75 277
-22 89 -67 253 -101 365 -34 112 -79 276 -101 363 -59 235 -103 392 -133 474
-19 54 -26 92 -26 148 0 82 -22 236 -47 331 -15 60 -27 79 -71 114 -19 16 -19
26 -15 195 4 141 2 198 -11 266 -16 82 -15 89 0 113 15 23 16 41 6 177 -10
130 -14 153 -32 170 -36 33 -26 60 34 91 30 16 72 50 96 78 l42 50 -11 82 c-6
45 -13 121 -17 169 l-7 88 61 0 c69 0 65 5 77 -98 13 -114 32 -798 27 -989 -3
-130 -1 -203 6 -203 33 0 375 228 590 394 79 61 176 136 217 167 100 76 339
285 397 347 65 69 124 163 142 225 14 48 14 55 -8 131 -13 45 -27 100 -31 123
-6 41 -5 43 47 92 80 74 130 152 135 209 5 45 -11 187 -62 567 -23 168 -31
224 -71 475 -29 182 -29 179 3 272 27 76 29 92 21 149 -23 179 -23 177 17 279
66 172 118 328 170 513 9 31 20 57 25 57 24 0 133 -109 169 -169 53 -90 83
-118 150 -138 57 -17 91 -43 91 -71 0 -8 17 -37 37 -64 30 -39 45 -50 75 -55
27 -4 59 -24 115 -72 79 -68 157 -143 207 -199 15 -18 42 -40 58 -48 39 -20
147 -20 187 1 29 14 33 14 68 -4 21 -11 72 -48 115 -83 42 -35 110 -88 152
-118 46 -34 91 -77 116 -112 71 -102 234 -228 373 -292 132 -60 375 -128 520
-146 48 -6 111 -15 139 -20 28 -6 109 -10 180 -10 107 0 135 3 166 19 107 55
195 230 235 467 15 88 13 118 -22 264 -11 49 -26 175 -36 300 -15 213 -33 334
-55 367 -10 16 -11 16 -5 -2 21 -64 36 -172 45 -340 7 -125 19 -229 35 -305
14 -63 28 -135 31 -160 6 -42 5 -44 -9 -25 -14 19 -16 15 -15 -56 0 -92 -24
-154 -60 -153 -12 0 -22 -3 -22 -8 0 -5 -4 -6 -10 -3 -5 3 -10 1 -10 -5 0 -6
-5 -8 -11 -4 -8 4 -7 9 2 15 10 7 11 11 3 17 -7 4 -13 16 -15 27 -3 12 -14 21
-27 23 -12 2 -22 8 -22 13 0 5 -3 8 -8 7 -11 -4 -92 34 -92 42 0 5 -11 11 -25
14 -13 3 -48 26 -77 49 -29 24 -84 67 -123 96 -131 99 -267 227 -308 290 -12
19 -52 55 -88 80 -37 25 -87 64 -111 86 -86 77 -121 104 -147 110 -35 9 -147
105 -221 188 -21 24 -22 30 -10 38 13 8 13 11 -2 20 -10 5 -18 17 -18 24 0 8
-7 15 -16 15 -11 0 -13 6 -9 19 3 11 1 22 -4 26 -7 3 -8 0 -5 -9 7 -17 -4 -20
-24 -8 -9 6 6 30 54 88 92 109 183 318 187 429 1 25 5 45 9 45 4 0 22 -9 40
-19 84 -48 225 -88 393 -111 189 -26 342 -87 465 -184 l65 -51 -34 42 c-51 64
-193 142 -328 179 -33 9 -72 27 -85 38 -12 12 -39 33 -59 47 -19 13 -60 44
-91 68 -51 41 -56 48 -62 95 -8 67 -35 140 -57 154 -14 9 -13 4 6 -25 15 -22
25 -50 25 -72 0 -35 0 -36 -13 -11 -19 39 -95 61 -185 55 -65 -5 -111 -23 -96
-38 3 -2 -7 -8 -22 -11 -14 -4 -29 -5 -32 -1 -3 3 2 5 11 5 10 0 17 8 17 21 0
11 -4 18 -9 14 -5 -3 -12 -1 -15 3 -3 5 -30 4 -61 -1 -30 -6 -58 -7 -61 -4 -7
6 -108 391 -120 454 -6 30 -5 32 27 35 41 4 155 -35 186 -64 13 -12 23 -17 23
-11 0 17 -43 50 -106 81 -56 28 -62 34 -67 69 -8 46 -43 96 -92 131 -25 18
-35 33 -35 51 0 14 -11 91 -25 171 -13 80 -25 168 -25 195 -1 74 -26 219 -46
257 -9 18 -38 60 -64 93 -26 33 -50 74 -54 90 -4 17 -18 44 -32 62 -15 20 -37
82 -59 162 -19 72 -41 141 -48 154 -8 12 -20 48 -26 80 -18 84 -25 63 -10 -27
15 -90 12 -96 -71 -126 -93 -34 -122 -28 -193 42 -32 31 -43 37 -45 24 -2 -9
-8 -16 -14 -16 -6 0 -8 10 -4 23 3 12 6 25 6 28 0 3 11 4 24 2 31 -6 42 13 22
36 -10 11 -18 45 -22 90 -4 40 -12 93 -19 119 -12 44 -12 38 -10 -78 l3 -125
-24 90 c-17 63 -24 116 -23 175 0 51 -6 107 -16 140 -13 43 -16 87 -13 200 3
80 1 132 -3 115 -14 -61 -9 -288 7 -334 8 -24 13 -50 10 -58 -6 -15 8 -184 24
-278 5 -33 12 -123 14 -200 3 -77 8 -148 11 -157 16 -40 -14 -14 -55 50 -141
214 -466 437 -727 497 -300 68 -470 99 -683 121 -139 14 -515 141 -715 241
-60 30 -116 59 -122 65 -7 6 -13 27 -13 47 0 49 -42 198 -69 242 l-21 36 31
89 c54 153 135 294 160 279 13 -9 11 -53 -6 -109 -8 -27 -13 -51 -11 -53 7 -8
46 55 77 124 47 103 52 113 57 108 2 -2 4 -67 3 -145 -1 -111 -5 -152 -21
-198 -15 -44 -16 -52 -4 -37 57 73 101 206 119 357 8 65 23 148 34 186 15 48
20 94 20 156 -1 75 1 90 19 109 42 44 62 107 62 195 0 50 -4 81 -9 77 -6 -3
-8 10 -5 32 3 31 2 34 -6 18 -9 -18 -10 -17 -7 7 2 15 1 25 -3 23 -11 -7 -22
43 -14 57 4 7 3 8 -5 4 -8 -6 -11 -1 -9 16 1 12 -7 52 -19 88 -11 36 -24 90
-28 120 l-7 55 41 -45 c100 -111 191 -270 242 -422 28 -84 31 -101 27 -188 -4
-93 -15 -131 -54 -190 -9 -14 8 1 39 32 73 76 91 129 91 268 0 78 -6 126 -23
188 -13 45 -27 85 -32 88 -5 3 -6 -3 -3 -13 3 -10 -15 20 -40 66 -137 248
-315 467 -511 629 -25 20 -31 28 -15 21 27 -14 114 -78 145 -109 34 -33 41
-22 8 13 -17 17 -40 50 -51 72 -71 139 -252 330 -413 435 -128 83 -162 103
-213 124 -28 12 -67 31 -86 42 -42 26 -251 94 -288 94 -15 0 -49 7 -77 16 -60
18 -261 22 -292 6 -15 -9 -42 -8 -104 3 -89 16 -172 17 -254 5z m918 -99 c38
-10 81 -30 95 -43 15 -14 47 -30 72 -37 105 -29 316 -177 446 -314 85 -88 192
-232 182 -242 -3 -3 -33 28 -68 70 -34 41 -83 91 -109 112 -63 51 -133 123
-119 123 15 0 -48 49 -162 127 -52 35 -111 76 -130 89 -19 14 -53 30 -77 36
-24 6 -43 14 -43 18 0 10 -67 38 -125 51 -54 13 -82 29 -49 29 11 0 50 -8 87
-19z m-1224 -52 c-115 -79 -207 -167 -124 -118 l37 22 -13 -21 c-8 -12 -19
-24 -25 -26 -35 -13 -154 -121 -163 -147 -6 -16 -17 -36 -25 -44 -8 -8 -17
-34 -21 -57 -7 -36 -9 -40 -16 -23 l-9 20 1 -20 c3 -45 0 -49 -18 -34 -16 12
-17 12 -5 -2 10 -13 9 -19 -5 -30 -9 -8 -14 -9 -11 -4 4 6 3 17 -1 23 -10 16
-73 -73 -135 -193 -26 -49 -54 -96 -61 -104 -18 -19 77 217 111 275 15 25 24
47 21 50 -7 7 -55 -58 -111 -148 -52 -85 -75 -107 -31 -30 158 272 352 480
568 608 115 68 133 69 36 3z m-317 -426 c-10 -16 -24 -36 -29 -47 -6 -10 -13
-14 -16 -9 -3 5 5 22 19 38 13 15 24 32 24 37 0 4 5 8 11 8 6 0 2 -12 -9 -27z
m2058 -83 c8 -5 11 -10 5 -10 -5 0 -17 5 -25 10 -8 5 -10 10 -5 10 6 0 17 -5
25 -10z m-2407 -235 c-9 -19 -18 -33 -21 -31 -4 5 26 66 33 66 3 0 -3 -16 -12
-35z m2196 -139 c54 -45 82 -79 120 -147 31 -56 40 -86 21 -74 -5 3 -10 1 -10
-4 0 -6 8 -11 19 -11 10 0 21 -8 24 -17 3 -10 28 -81 56 -158 28 -77 51 -143
51 -146 0 -14 -169 -90 -285 -128 -128 -42 -239 -66 -345 -76 -92 -8 -480 -16
-480 -10 0 11 133 303 162 355 44 80 140 220 150 220 4 0 8 5 8 11 0 12 91
139 113 157 7 6 57 16 112 22 55 6 127 17 160 24 33 7 65 14 72 15 6 0 30 -14
52 -33z m634 -161 l6 -30 -14 31 c-8 17 -16 44 -20 60 l-5 29 14 -30 c7 -16
16 -43 19 -60z m26 -121 c18 -37 30 -68 28 -70 -3 -4 -31 52 -65 129 -2 4 -2
7 1 7 2 0 19 -30 36 -66z m-325 -173 c14 -35 23 -68 20 -73 -6 -9 -25 40 -49
122 -13 42 2 18 29 -49z m383 -135 c6 -83 -6 -146 -28 -146 -10 0 -12 130 -2
209 8 73 22 45 30 -63z m-503 -54 c-62 -45 -211 -190 -235 -228 -25 -41 -34
-145 -12 -137 7 3 13 9 13 15 0 5 4 7 9 3 5 -3 12 4 16 15 6 19 8 19 28 5 12
-8 38 -15 58 -15 29 0 43 7 63 31 32 38 36 84 6 74 -23 -7 -28 12 -6 21 8 3
16 14 19 25 3 13 14 19 31 19 25 0 26 -3 26 -51 0 -57 -19 -98 -59 -122 l-26
-16 27 -1 c14 0 28 -6 30 -12 7 -20 58 19 58 43 0 11 -4 17 -10 14 -6 -3 -7 1
-4 9 3 9 10 13 15 10 5 -3 6 1 3 9 -3 8 -1 18 5 22 6 3 11 19 11 36 0 41 18
36 26 -8 10 -53 -3 -333 -20 -433 -24 -146 -80 -327 -185 -602 -108 -284 -112
-293 -163 -320 -39 -21 -55 -23 -173 -21 -129 1 -255 18 -255 34 0 5 -6 6 -14
3 -8 -3 -17 0 -21 5 -3 6 -11 9 -16 6 -5 -4 -9 -1 -9 4 0 6 -9 11 -21 11 -11
0 -18 4 -14 9 6 11 -31 25 -45 16 -9 -6 -92 33 -98 47 -2 4 -10 4 -19 1 -10
-4 -14 -2 -10 4 8 12 -14 23 -44 23 -23 0 -108 52 -223 137 -76 56 -186 172
-186 196 0 8 3 7 9 -2 9 -15 14 17 26 167 10 134 64 333 113 417 l23 40 -7
-102 c-6 -88 1 -221 11 -211 3 2 15 57 38 165 2 7 6 16 10 19 4 4 7 13 7 20 0
7 14 43 31 79 l32 65 25 -16 c16 -11 53 -18 96 -21 50 -2 65 0 51 6 -17 8 -16
10 12 10 17 1 38 4 47 7 28 11 17 20 -18 16 -42 -5 -135 21 -166 46 -20 16
-21 21 -10 42 13 24 13 24 21 4 14 -41 57 -64 116 -64 48 0 58 4 86 32 l32 32
-29 6 c-36 6 -36 26 0 23 18 -1 24 3 24 18 0 10 4 19 8 19 14 0 96 -57 121
-84 32 -34 55 -35 47 -1 -5 21 -3 24 14 22 11 -2 23 -6 26 -10 13 -12 44 -7
50 8 3 8 14 17 25 20 26 9 24 22 -8 40 l-28 16 35 -5 c19 -2 44 -8 55 -12 19
-7 20 -7 2 13 -10 12 -30 26 -45 32 -33 13 -260 60 -415 86 -76 12 -23 22 155
29 101 4 233 13 294 21 127 17 325 71 434 119 96 43 127 46 74 8z m38 -72 c-2
-16 -9 -30 -16 -30 -6 0 -22 -3 -35 -7 -23 -6 -23 -4 9 30 40 45 48 46 42 7z
m-1992 -207 c-1 -28 -3 -34 -10 -22 -8 14 -3 59 6 59 2 0 4 -17 4 -37z m940
-113 c0 -5 -2 -10 -4 -10 -3 0 -8 5 -11 10 -3 6 -1 10 4 10 6 0 11 -4 11 -10z
m-775 -245 c26 -23 71 -113 61 -122 -9 -9 -54 46 -75 90 -13 26 -27 45 -32 41
-5 -3 -9 -3 -9 0 0 2 -3 12 -7 21 -5 15 -3 16 13 7 10 -6 32 -23 49 -37z m244
-220 l0 -20 -9 20 c-5 11 -8 38 -8 60 l0 40 9 -40 c4 -22 8 -49 8 -60z m95
-210 c8 -22 -6 -26 -20 -6 -24 34 -84 154 -84 167 0 28 17 13 27 -23 9 -34 11
-35 12 -10 0 15 6 27 11 27 6 0 10 33 11 78 1 73 2 70 19 -71 10 -82 21 -154
24 -162z m1492 -93 c66 -198 15 -430 -144 -667 -63 -93 -290 -305 -327 -305
-35 0 -18 24 65 90 175 139 318 329 376 498 30 85 34 110 34 197 0 103 -20
213 -45 252 -8 12 -15 30 -15 40 1 34 26 -13 56 -105z m-2406 -299 c-24 -86
-46 -124 -34 -58 8 49 44 148 51 142 2 -3 -5 -40 -17 -84z m81 60 c9 -24 3
-52 -43 -186 -29 -86 -54 -153 -56 -148 -1 4 4 42 13 82 9 41 20 104 24 140 7
56 35 139 47 139 3 0 9 -12 15 -27z m599 -733 c0 -5 6 -10 14 -10 23 0 39
-137 31 -266 -6 -97 -5 -114 7 -114 8 0 23 9 34 21 14 15 16 24 8 37 -6 9 -10
28 -8 42 1 14 3 37 3 53 1 21 6 27 24 27 12 0 60 11 106 24 l84 24 -54 -55
-54 -55 50 27 c28 15 61 38 75 50 76 67 237 165 271 165 20 -1 49 -25 49 -41
0 -8 -11 -26 -25 -41 -14 -15 -25 -30 -25 -34 0 -4 -10 -18 -22 -31 -30 -32
-18 -38 44 -18 95 32 172 71 222 114 26 23 50 40 53 38 2 -3 6 -35 8 -71 3
-37 10 -76 15 -87 6 -11 10 -30 8 -42 -2 -18 5 -24 42 -36 46 -15 63 -28 53
-44 -3 -5 1 -13 8 -18 12 -8 11 -12 -3 -23 -10 -7 -18 -21 -18 -30 0 -9 -6
-16 -14 -16 -21 0 -26 -25 -10 -55 17 -33 17 -49 4 -113 -10 -44 -15 -51 -55
-70 -25 -12 -45 -29 -45 -37 0 -8 -3 -15 -7 -15 -5 0 -21 -12 -38 -26 -26 -23
-30 -33 -36 -100 -5 -67 -9 -79 -40 -112 -61 -65 -77 -90 -34 -52 21 19 46 41
54 48 9 7 31 27 49 45 l33 32 -5 -45 c-24 -209 -29 -368 -17 -586 6 -126 18
-278 26 -339 13 -97 18 -188 13 -235 0 -8 2 -26 6 -40 4 -14 4 -20 -1 -13 -5
7 -9 -18 -8 -61 0 -41 3 -72 8 -69 4 2 7 -5 7 -17 0 -12 5 -31 11 -43 9 -16 9
-22 0 -25 -6 -2 -11 -11 -11 -20 0 -15 2 -15 10 -2 7 11 10 5 11 -25 1 -37 16
-102 18 -80 1 8 34 -32 37 -45 0 -3 4 -12 8 -21 4 -8 19 -78 35 -155 l28 -139
-21 -12 c-12 -7 -32 -13 -46 -13 -31 -1 -60 -22 -60 -44 0 -9 -7 -16 -15 -16
-8 0 -15 -4 -15 -10 0 -5 -5 -10 -10 -10 -6 0 -22 -12 -36 -27 -19 -20 -21
-29 -12 -35 10 -6 9 -11 -5 -19 -9 -6 -15 -15 -11 -20 4 -6 11 -5 21 2 11 10
16 10 23 0 4 -7 29 -15 56 -18 27 -2 59 -9 71 -15 12 -6 37 -8 55 -4 23 4 29
3 18 -4 -13 -8 -12 -10 3 -10 9 0 17 7 17 16 0 14 1 14 16 0 8 -9 12 -21 8
-27 -4 -8 -3 -9 4 -5 7 4 13 0 14 -11 2 -29 4 -36 22 -76 9 -21 14 -42 11 -47
-4 -6 -2 -10 4 -10 5 0 13 -15 17 -32 3 -18 24 -85 45 -148 27 -79 36 -117 28
-125 -7 -7 -8 -4 -3 10 7 18 6 19 -11 5 -10 -8 -30 -25 -43 -37 -14 -13 -29
-23 -33 -23 -5 0 -9 -25 -9 -56 0 -69 -20 -112 -82 -178 -36 -38 -48 -59 -48
-82 0 -19 -8 -38 -22 -50 -37 -31 -86 -64 -98 -64 -5 0 -10 -4 -10 -10 0 -5
11 -10 25 -10 14 0 25 4 25 9 0 12 55 34 88 35 15 1 26 6 25 13 -2 7 14 11 43
11 25 -1 50 4 56 10 7 7 19 12 27 12 31 0 98 32 100 48 2 9 4 43 5 75 0 31 3
53 4 47 2 -5 8 -10 13 -10 4 0 6 8 3 18 -5 13 -4 14 4 3 6 -8 8 -21 5 -28 -3
-8 -1 -24 4 -36 44 -95 46 -104 27 -129 -22 -30 -148 -128 -164 -128 -6 0 -10
-6 -8 -12 5 -15 -53 -74 -79 -81 -14 -4 -12 -5 6 -6 26 -1 71 -43 71 -66 0 -7
-5 -26 -10 -40 -9 -22 -15 -26 -35 -21 -19 5 -25 2 -25 -10 0 -8 -5 -14 -12
-12 -6 2 -24 -20 -39 -49 -27 -53 -27 -55 -13 -109 7 -30 13 -60 11 -66 -1 -7
8 -14 21 -16 12 -2 22 -8 22 -13 0 -6 5 -7 10 -4 9 6 40 -17 40 -29 0 -3 9
-15 20 -26 l20 -20 0 20 c0 11 6 20 14 20 8 0 22 10 31 22 12 18 19 21 32 12
13 -8 17 -30 20 -109 2 -54 8 -106 14 -116 15 -29 0 -119 -27 -161 -13 -21
-24 -42 -24 -46 0 -5 -23 -32 -51 -61 -35 -34 -60 -51 -78 -52 -25 0 -26 0 -3
-9 17 -7 22 -17 22 -45 0 -39 -16 -48 -23 -12 -4 17 -5 15 -6 -8 0 -16 -3 -44
-7 -61 -7 -35 11 -71 58 -116 15 -15 28 -34 28 -44 0 -13 7 -16 35 -11 19 3
41 12 48 19 35 38 67 90 72 119 3 18 10 38 14 44 5 5 12 28 15 50 5 29 16 47
39 65 18 13 66 57 108 97 41 40 78 73 82 73 16 0 5 -63 -17 -98 -41 -65 -74
-137 -77 -167 -5 -43 14 -277 27 -337 7 -33 -21 -74 -85 -123 -41 -32 -82 -46
-81 -27 1 4 17 19 37 34 20 16 31 28 24 28 -7 0 -9 5 -6 10 4 6 11 8 16 4 5
-3 9 -2 8 3 -3 18 2 33 11 33 6 0 10 -8 10 -17 0 -14 3 -14 20 5 29 31 25 57
-15 101 -46 51 -86 57 -152 21 -94 -50 -121 -73 -132 -112 -7 -21 -22 -43 -34
-49 -12 -7 -50 -40 -84 -74 -35 -35 -77 -69 -95 -78 -20 -9 -95 -19 -193 -26
-88 -7 -203 -16 -255 -21 -104 -11 -572 -13 -715 -4 -171 11 -716 86 -895 124
-52 11 -140 29 -195 41 -110 22 -207 45 -245 58 -14 5 -68 21 -120 36 -52 14
-104 31 -115 35 -11 5 -49 19 -85 31 -74 24 -200 87 -200 100 0 5 -8 9 -17 9
-12 0 -14 3 -7 10 10 10 93 -28 122 -57 7 -7 20 -13 29 -13 12 0 13 3 4 14
-10 12 -9 13 7 9 23 -6 40 16 22 27 -7 4 -10 15 -7 23 7 18 -12 27 -56 27 -44
1 -67 21 -67 58 0 49 15 75 59 102 42 25 65 66 51 91 -24 42 -8 109 26 109 7
0 16 9 19 20 3 11 10 20 14 20 5 0 28 18 52 40 24 22 55 41 69 41 14 1 33 2
42 3 10 1 18 4 18 9 1 44 -1 49 -16 43 -13 -5 -15 -2 -11 13 5 19 4 19 -27 2
-21 -12 -31 -25 -31 -42 0 -14 -5 -23 -12 -22 -7 2 -13 -5 -13 -14 0 -13 -3
-14 -12 -5 -7 7 -17 12 -23 12 -12 0 -89 -69 -95 -85 -19 -53 -27 -65 -52 -79
-27 -17 -28 -17 -40 8 -9 22 -7 37 17 98 36 93 68 160 62 130 -5 -19 -3 -21 8
-12 8 7 14 15 14 18 -2 17 14 51 22 46 5 -3 9 4 9 15 0 12 4 21 8 21 8 0 36
66 37 85 0 6 3 13 8 16 4 3 9 37 11 75 6 93 18 178 26 184 8 6 37 121 45 180
4 25 7 80 8 123 2 67 4 75 16 60 12 -17 13 -16 7 3 -4 14 -2 24 8 27 17 7 26
-13 26 -56 0 -24 3 -28 12 -19 9 9 15 3 25 -26 7 -20 13 -47 13 -60 0 -19 -4
-22 -20 -17 -22 7 -25 1 -33 -55 -4 -30 -1 -37 20 -47 20 -10 28 -9 40 2 11
12 12 15 1 16 -7 0 4 7 26 15 21 7 42 11 48 8 30 -19 51 63 27 108 -21 39 -51
67 -68 61 -10 -3 -12 -2 -5 4 15 11 -2 57 -19 50 -24 -9 -8 176 21 245 14 32
22 37 52 40 34 3 35 5 46 58 8 44 8 57 -3 65 -15 11 -21 130 -10 200 3 22 6
45 6 51 1 7 9 11 18 10 12 0 19 7 21 22 2 12 -2 22 -7 22 -7 0 -9 10 -5 25 5
19 2 25 -10 25 -10 0 -16 9 -16 24 0 14 -4 28 -10 31 -5 3 -10 17 -10 29 0 39
-29 98 -46 92 -16 -6 -19 9 -4 19 6 3 10 12 10 18 0 7 -4 6 -10 -3 -11 -17
-13 -6 -4 27 5 17 20 27 56 38 28 8 54 12 59 9 5 -3 9 11 9 30 0 25 5 36 19
41 17 5 35 29 28 38 -1 2 6 11 16 21 9 10 17 27 17 38 0 12 3 19 6 16 3 -3 16
5 29 18 21 20 28 22 51 13 30 -11 124 5 124 21 0 4 9 6 20 3 11 -3 20 -12 20
-20 0 -11 7 -14 25 -11 14 3 25 2 25 -1 0 -9 51 -31 71 -31 25 0 32 16 17 39
-9 14 -19 19 -34 15 -19 -5 -22 -2 -17 15 4 16 1 21 -13 21 -11 0 -25 9 -32
20 -7 11 -20 20 -30 20 -10 0 -22 3 -26 8 -4 4 -12 7 -18 7 -6 0 -16 9 -22 20
-6 10 -26 41 -44 68 -19 27 -31 51 -28 55 7 6 -36 64 -75 103 -25 24 -26 32
-32 159 -4 103 -9 137 -21 145 -22 16 -14 48 68 293 172 509 301 808 455 1050
47 73 56 82 83 82 16 0 43 9 59 21 l29 20 0 -25 c0 -14 -4 -28 -10 -31 -5 -3
-10 -11 -10 -17 0 -7 6 -6 15 2 16 13 21 90 6 90 -4 0 -6 12 -3 28 5 24 4 26
-11 13 -10 -7 -17 -10 -17 -5 0 5 -4 2 -10 -6 -5 -8 -11 -12 -14 -10 -2 3 10
27 28 53 30 44 44 54 142 98 60 27 118 53 129 58 11 5 49 19 85 30 50 16 70
28 83 50 37 62 104 62 166 -1 18 -19 36 -28 48 -25 15 4 15 5 -3 6 -28 1 -37
34 -13 49 13 8 19 8 23 -1 3 -7 3 45 -1 115 -6 145 -2 178 27 178 11 0 20 -4
20 -10z m-2573 -22 c-3 -8 -6 -5 -6 6 -1 11 2 17 5 13 3 -3 4 -12 1 -19z m-53
-323 c7 -45 19 -166 20 -200 0 -16 5 -33 10 -36 10 -8 -1 -29 -15 -29 -5 0 -9
6 -9 14 0 8 -6 16 -12 18 -9 3 -14 35 -15 104 -4 133 8 206 21 129z m6448
-115 c34 -11 71 -20 82 -20 16 0 15 -4 -9 -36 -40 -52 -64 -123 -67 -198 -2
-36 -7 -66 -11 -66 -5 0 -5 -4 -2 -10 3 -5 -1 -10 -9 -10 -8 0 -19 8 -25 17
-10 20 -62 26 -73 9 -5 -7 -8 -3 -8 9 0 17 -2 18 -10 5 -9 -13 -12 -13 -21 3
-6 9 -15 15 -20 11 -6 -3 -17 2 -25 12 -14 18 -15 17 -9 -8 3 -16 1 -28 -5
-28 -16 0 -25 49 -25 130 1 91 23 140 80 175 49 30 75 31 157 5z m-4758 -81
c22 -31 0 -89 -53 -145 l-45 -45 -18 23 c-10 13 -18 19 -19 13 -1 -5 -3 -14
-4 -20 -2 -5 -3 -14 -4 -19 -3 -21 -31 19 -31 45 0 58 34 113 95 150 39 24 60
24 79 -2z m1763 -231 c-3 -8 -6 -5 -6 6 -1 11 2 17 5 13 3 -3 4 -12 1 -19z
m2888 -41 c33 -7 60 -17 59 -22 0 -6 -12 -35 -27 -66 -15 -30 -31 -80 -37
-109 -13 -69 -53 -107 -85 -80 -29 24 -127 -3 -110 -30 3 -5 2 -10 -3 -10 -14
0 -42 98 -42 149 1 78 45 149 110 174 25 9 71 7 135 -6z m1044 -243 c12 -52 7
-93 -6 -46 -3 12 -11 22 -19 22 -7 0 -15 4 -18 9 -7 11 13 71 23 71 4 0 13
-25 20 -56z m-35 -268 c9 -44 18 -81 20 -83 2 -2 10 3 19 11 11 11 13 24 7 50
-9 42 1 64 20 41 7 -8 10 -18 7 -22 -4 -3 -2 -13 2 -22 11 -20 -42 -106 -115
-183 -27 -29 -82 -92 -122 -139 -40 -47 -87 -96 -104 -109 l-32 -23 21 34 c17
28 20 43 14 79 -9 54 -36 110 -54 110 -7 0 -19 -6 -26 -12 -8 -7 19 28 59 77
40 50 81 108 91 130 16 34 24 39 21 13 -1 -3 5 -9 13 -12 10 -3 12 0 8 12 -3
9 6 4 20 -13 l25 -29 -2 67 c0 37 -3 67 -5 67 -3 0 -13 -8 -24 -17 -27 -23
-16 -5 38 67 23 30 48 71 56 90 l14 35 6 -70 c4 -38 14 -106 23 -149z m-1061
145 l29 -11 -26 -30 c-23 -28 -66 -146 -66 -182 0 -21 -64 -14 -99 12 -16 11
-31 20 -34 20 -12 0 24 -76 42 -88 12 -8 21 -18 21 -23 0 -11 -33 1 -42 15 -4
6 -10 7 -14 3 -18 -18 63 -147 92 -147 8 0 14 -7 14 -16 0 -10 5 -14 15 -10
13 5 13 1 -1 -26 -12 -22 -13 -33 -5 -36 6 -2 8 -9 4 -15 -4 -6 0 -8 9 -5 16
7 46 -7 37 -17 -11 -10 -58 14 -70 36 -6 13 -20 32 -31 43 -11 12 -36 55 -56
96 -31 64 -37 87 -40 161 -5 99 13 170 54 214 23 25 30 27 82 23 31 -3 70 -10
85 -17z m231 -560 c-6 -6 -54 48 -54 62 0 6 13 -4 29 -23 16 -19 27 -37 25
-39z m463 4 c57 -113 58 -96 -6 -157 -67 -65 -113 -98 -137 -98 -10 0 1 12 29
31 26 17 47 37 47 44 0 7 -10 23 -23 36 -13 13 -26 32 -30 42 -8 21 -35 22
-65 1 -12 -8 -22 -11 -22 -7 0 5 16 17 36 28 20 10 57 45 82 77 25 32 49 57
54 56 5 -2 21 -26 35 -53z m-5829 -7 c15 -15 15 -61 2 -107 -12 -42 -59 -115
-68 -106 -4 3 0 10 7 14 9 6 10 11 3 15 -6 4 -9 13 -6 21 3 7 -4 18 -15 25
-20 10 -21 8 -21 -35 0 -28 -4 -44 -10 -40 -25 16 -3 144 36 202 16 25 53 30
72 11z m5342 -100 c0 -51 -5 -47 -14 10 -4 29 -3 41 4 37 5 -3 10 -25 10 -47z
m268 -26 c2 -8 -8 -12 -30 -12 -31 1 -32 1 -13 15 21 17 37 15 43 -3z m1233
-63 l24 -20 -24 11 c-13 7 -44 16 -70 20 l-46 8 46 1 c34 1 53 -5 70 -20z m24
-77 c33 -3 66 -15 95 -35 94 -63 200 -140 196 -144 -5 -5 -181 24 -251 42 -82
21 -230 83 -250 105 -16 17 -14 19 37 29 29 5 62 12 73 14 11 3 27 2 35 0 8
-3 38 -8 65 -11z m-1431 -218 c4 -13 11 -24 16 -24 6 0 10 -7 10 -15 0 -8 4
-15 9 -15 11 0 51 -80 51 -103 0 -33 -35 -17 -88 41 -58 61 -58 58 -3 -28 20
-30 34 -58 33 -62 -1 -5 4 -7 11 -5 6 1 11 -3 10 -10 -2 -7 3 -10 10 -7 16 6
96 -55 96 -73 1 -6 23 -44 50 -84 35 -51 47 -77 41 -88 -5 -9 -19 -64 -32
-123 -12 -60 -26 -108 -30 -108 -10 0 -21 78 -12 91 4 7 3 9 -4 5 -6 -4 -15
14 -23 48 -6 30 -16 54 -22 53 -5 -1 -14 12 -21 29 -10 29 -12 30 -28 15 -15
-15 -29 -67 -47 -176 -6 -39 -7 -38 -19 35 -19 121 -18 199 4 284 5 23 4 27
-6 21 -10 -6 -12 -4 -7 9 4 10 3 15 -4 11 -5 -4 -7 -16 -3 -27 4 -12 2 -18 -4
-14 -5 3 -15 -9 -22 -27 -24 -60 -42 -102 -51 -119 -5 -10 -9 -40 -9 -68 0
-38 -4 -50 -15 -50 -12 0 -15 20 -15 118 0 64 6 150 14 190 8 40 11 83 8 95
-6 22 -6 21 -12 -3 -4 -14 -12 -24 -18 -23 -9 2 -18 -26 -47 -152 -7 -28 -13
-93 -20 -205 -5 -80 -3 -103 13 -145 24 -59 40 -68 49 -25 5 28 7 30 16 14 5
-11 15 -23 21 -29 6 -5 16 -23 21 -40 6 -18 23 -36 40 -44 17 -8 31 -18 33
-22 2 -4 10 -5 18 -2 9 3 28 -9 48 -30 19 -20 36 -33 40 -30 3 4 6 26 6 49 0
24 5 46 12 50 19 12 38 -27 38 -79 0 -69 35 -177 70 -215 16 -18 26 -32 21
-32 -20 0 -100 62 -119 92 -12 19 -49 56 -83 84 -166 134 -182 144 -214 144
-35 0 -68 29 -80 70 -11 34 -7 190 6 270 32 198 91 416 134 499 l13 25 21 -45
c17 -35 20 -38 15 -14 -7 39 -7 36 1 63 l8 23 22 -21 c13 -12 26 -33 29 -46z
m-3077 34 c-3 -8 -6 -5 -6 6 -1 11 2 17 5 13 3 -3 4 -12 1 -19z m3294 -369
c11 -11 18 -23 15 -26 -7 -7 -46 26 -46 39 0 13 8 10 31 -13z m268 -248 c8 -5
16 -19 18 -31 2 -12 13 -35 26 -50 32 -40 132 -201 132 -214 1 -6 7 -33 14
-59 8 -26 11 -50 7 -54 -3 -3 -6 1 -6 10 0 9 -4 17 -10 17 -5 0 -10 7 -10 16
0 8 -4 12 -10 9 -5 -3 -10 3 -10 14 0 12 -4 21 -10 21 -5 0 -12 11 -16 25 -3
14 -10 25 -15 25 -5 0 -9 5 -9 10 0 6 -15 34 -34 63 -43 67 -102 156 -122 185
-16 21 -16 22 12 22 16 0 35 -4 43 -9z m-6221 -423 l4 -63 -22 23 c-18 19 -20
30 -15 64 6 31 4 39 -5 33 -9 -6 -11 -31 -7 -94 3 -47 2 -95 -2 -106 -8 -19
-8 -19 -19 2 -23 42 -9 184 21 221 20 24 40 -13 45 -80z m129 -370 c-3 -7 -5
-2 -5 12 0 14 2 19 5 13 2 -7 2 -19 0 -25z m-690 -90 c-3 -8 -6 -5 -6 6 -1 11
2 17 5 13 3 -3 4 -12 1 -19z m7373 -168 c0 -5 -2 -10 -4 -10 -3 0 -8 5 -11 10
-3 6 -1 10 4 10 6 0 11 -4 11 -10z m198 -81 c31 -6 71 -17 87 -24 66 -29 90
-33 109 -19 10 7 15 17 12 22 -3 5 6 19 19 32 13 13 22 26 20 30 -10 15 31 5
46 -12 9 -10 21 -18 27 -18 6 0 38 -14 71 -30 42 -22 67 -29 85 -24 14 3 26
10 26 15 0 5 20 -4 44 -18 25 -15 42 -31 40 -35 -3 -4 2 -8 10 -8 8 0 50 -18
93 -39 43 -22 104 -45 136 -51 31 -6 57 -14 57 -17 0 -16 -318 8 -485 36 -216
38 -265 51 -364 101 -42 21 -99 48 -127 61 -32 14 -50 28 -47 36 4 9 14 8 44
-8 22 -11 66 -25 97 -30z m-3802 -384 c-1 -19 -7 -37 -14 -40 -8 -3 -12 5 -10
28 2 36 6 47 17 47 4 0 7 -16 7 -35z m-3536 -142 c-1 -16 -7 -41 -15 -58 l-13
-30 -1 38 c-1 21 4 37 10 37 6 0 9 9 6 20 -3 11 -1 20 4 20 5 0 9 -12 9 -27z
m-44 -11 c-17 -16 -18 -16 -5 5 7 12 15 20 18 17 3 -2 -3 -12 -13 -22z m3264
-12 c0 -5 -7 -10 -15 -10 -8 0 -15 5 -15 10 0 6 7 10 15 10 8 0 15 -4 15 -10z
m-3292 -40 c-5 -17 -7 -37 -4 -45 3 -8 1 -15 -5 -15 -6 0 -8 -3 -6 -7 3 -5 -2
-14 -11 -22 -13 -13 -15 -10 -10 26 5 34 32 93 44 93 1 0 -2 -14 -8 -30z
m-248 -735 c0 -8 -6 -15 -14 -15 -8 0 -16 7 -20 15 -4 10 1 15 14 15 11 0 20
-7 20 -15z m-60 -61 c-18 -21 -24 -10 -9 18 8 14 14 18 17 10 2 -7 -2 -19 -8
-28z m3856 -329 c-8 -8 -18 -15 -22 -15 -3 0 -1 7 6 15 7 8 17 15 22 15 5 0 3
-7 -6 -15z m-36 -24 c0 -23 -71 -81 -120 -100 -57 -22 -110 -28 -110 -12 0 13
73 58 107 65 18 4 48 20 69 37 33 26 54 30 54 10z m-4695 -1926 c4 -11 9 -38
11 -60 3 -22 8 -41 12 -42 4 -2 6 -46 5 -98 -1 -70 3 -99 13 -110 8 -7 11 -20
8 -29 -3 -8 -1 -30 5 -48 5 -18 12 -53 15 -78 2 -25 11 -64 19 -87 8 -23 11
-45 7 -50 -21 -22 -20 -50 2 -61 23 -11 23 -11 -4 -9 -15 1 -24 5 -22 9 3 4
-1 8 -9 8 -14 0 -27 20 -27 41 0 5 7 9 15 9 21 0 19 37 -4 49 -14 8 -20 25
-24 73 -2 35 -14 124 -25 198 -37 242 -40 272 -28 308 11 36 11 36 31 -23z
m91 -701 c-3 -9 -6 -22 -6 -30 0 -12 -2 -12 -14 -2 -10 9 -11 18 -5 31 12 21
33 23 25 1z m26 -211 c0 -15 -5 -39 -10 -53 -9 -24 -10 -23 -17 15 -4 22 -9
48 -12 59 -3 12 -1 16 6 12 6 -4 11 -2 11 5 0 10 3 10 12 1 6 -6 11 -24 10
-39z m6 -168 c-3 -3 -9 2 -12 12 -6 14 -5 15 5 6 7 -7 10 -15 7 -18z m26 -48
c10 -37 7 -57 -9 -57 -9 0 -14 9 -14 23 0 12 -2 32 -6 45 -6 17 -4 21 8 16 8
-3 18 -15 21 -27z"/>
<path d="M4468 11553 c6 -2 18 -2 25 0 6 3 1 5 -13 5 -14 0 -19 -2 -12 -5z"/>
<path d="M4588 11543 c6 -2 18 -2 25 0 6 3 1 5 -13 5 -14 0 -19 -2 -12 -5z"/>
<path d="M4953 11513 c9 -2 25 -2 35 0 9 3 1 5 -18 5 -19 0 -27 -2 -17 -5z"/>
<path d="M4985 10305 c-17 -22 -33 -27 -118 -39 -53 -7 -101 -16 -105 -21 -4
-4 9 -5 28 -2 24 3 45 -1 67 -15 l32 -19 46 27 c47 27 80 65 73 84 -2 6 -12
-1 -23 -15z"/>
<path d="M4813 10018 c-21 -10 -74 -25 -118 -33 -44 -8 -104 -19 -134 -24 -29
-6 -64 -8 -77 -5 -27 7 -33 -10 -8 -20 20 -8 194 11 314 34 25 5 74 14 110 21
36 7 80 20 98 29 l32 18 -89 -1 c-66 0 -99 -5 -128 -19z"/>
<path d="M4843 9888 c-56 -18 -61 -21 -47 -35 8 -8 18 -13 21 -9 3 3 12 1 19
-5 20 -17 94 28 94 58 0 17 -10 16 -87 -9z"/>
<path d="M4221 8726 c-11 -13 -7 -15 33 -14 30 0 45 5 43 12 -6 17 -62 19 -76
2z"/>
<path d="M2757 8167 c-9 -33 7 -99 28 -117 11 -9 20 -7 45 10 17 12 28 25 25
28 -3 4 -9 2 -13 -4 -4 -6 -16 -14 -28 -18 -26 -8 -42 21 -46 84 -3 41 -4 42
-11 17z"/>
<path d="M3066 8010 c-28 -51 -50 -62 -75 -37 -11 10 -13 9 -9 -2 2 -8 12 -19
21 -25 20 -13 51 13 79 67 29 58 15 55 -16 -3z"/>
<path d="M2946 8016 c-20 -9 -25 -16 -16 -21 7 -4 21 1 33 14 24 24 23 24 -17
7z"/>
<path d="M3677 8000 c-21 -12 -53 -34 -70 -49 -18 -16 -45 -41 -62 -55 l-30
-27 40 20 c22 10 46 29 53 40 6 12 37 35 67 52 30 17 55 33 55 35 0 8 -17 3
-53 -16z"/>
<path d="M3967 7965 c-9 -22 9 -27 30 -7 10 9 13 13 6 8 -8 -5 -13 -4 -13 3 0
16 -17 14 -23 -4z"/>
<path d="M4060 7955 c0 -8 5 -15 10 -15 6 0 10 7 10 15 0 8 -4 15 -10 15 -5 0
-10 -7 -10 -15z"/>
<path d="M3265 7911 c-3 -12 -11 -19 -16 -16 -5 4 -9 2 -9 -4 0 -5 4 -12 9
-15 8 -6 35 43 27 51 -2 2 -7 -5 -11 -16z"/>
<path d="M3895 7915 c-25 -12 -26 -14 -5 -9 28 7 60 23 45 23 -5 0 -23 -6 -40
-14z"/>
<path d="M3350 7879 c0 -13 17 -20 34 -13 24 9 19 22 -9 22 -14 0 -25 -4 -25
-9z"/>
<path d="M3783 7883 c9 -2 25 -2 35 0 9 3 1 5 -18 5 -19 0 -27 -2 -17 -5z"/>
<path d="M3487 7859 c-10 -6 -28 -8 -39 -6 -15 4 -18 3 -10 -5 12 -12 72 -1
72 13 0 11 -1 11 -23 -2z"/>
<path d="M4240 5912 c23 -4 24 -5 5 -13 -17 -7 -17 -8 -2 -6 26 3 22 22 -5 23
-20 1 -19 0 2 -4z"/>
<path d="M2053 5598 c-23 -11 -32 -48 -12 -48 7 0 9 -12 5 -34 -5 -28 -3 -34
14 -39 14 -3 18 -10 14 -22 -5 -11 0 -18 15 -22 11 -3 18 -9 15 -15 -9 -14 16
-38 41 -38 39 0 73 58 44 76 -6 3 -9 15 -6 25 3 11 2 19 -3 19 -4 0 -11 11
-14 24 -6 26 -63 86 -80 85 -6 0 -21 -5 -33 -11z"/>
<path d="M1792 4910 c0 -19 2 -27 5 -17 2 9 2 25 0 35 -3 9 -5 1 -5 -18z"/>
<path d="M1762 4860 c0 -14 2 -19 5 -12 2 6 2 18 0 25 -3 6 -5 1 -5 -13z"/>
<path d="M1820 4460 c-13 -9 -11 -14 13 -35 l27 -24 -23 -16 c-13 -8 -32 -13
-41 -9 -9 3 -30 1 -47 -7 -30 -12 -31 -14 -25 -57 3 -25 11 -51 18 -59 9 -11
4 -21 -25 -46 -34 -32 -35 -34 -15 -46 17 -10 22 -9 34 6 7 10 14 15 14 11 0
-3 21 14 47 38 45 43 55 48 81 45 8 -1 21 4 30 13 10 8 22 14 27 14 6 0 15 10
22 22 10 20 9 26 -5 37 -15 11 -15 14 -2 23 12 9 10 10 -7 5 -19 -5 -23 -2
-23 16 0 21 -1 22 -20 4 -26 -24 -36 -14 -12 11 18 19 18 19 -17 30 -20 6 -35
16 -33 22 3 14 1 15 -18 2z"/>
<path d="M1630 3769 c0 -5 5 -7 10 -4 6 3 10 8 10 11 0 2 -4 4 -10 4 -5 0 -10
-5 -10 -11z"/>
<path d="M1670 3760 c0 -5 5 -10 10 -10 6 0 10 5 10 10 0 6 -4 10 -10 10 -5 0
-10 -4 -10 -10z"/>
<path d="M1708 3753 c6 -2 18 -2 25 0 6 3 1 5 -13 5 -14 0 -19 -2 -12 -5z"/>
<path d="M1979 3720 c-8 -5 -4 -10 12 -16 69 -23 122 -29 117 -14 -7 22 -105
44 -129 30z"/>
<path d="M7470 6479 c0 -5 5 -7 10 -4 6 3 10 8 10 11 0 2 -4 4 -10 4 -5 0 -10
-5 -10 -11z"/>
<path d="M7631 6104 c0 -11 3 -14 6 -6 3 7 2 16 -1 19 -3 4 -6 -2 -5 -13z"/>
<path d="M111 1304 c0 -11 3 -14 6 -6 3 7 2 16 -1 19 -3 4 -6 -2 -5 -13z"/>
<path d="M180 850 c0 -11 5 -20 10 -20 6 0 10 9 10 20 0 11 -4 20 -10 20 -5 0
-10 -9 -10 -20z"/>
<path d="M5550 11927 c0 -2 15 -16 33 -33 l32 -29 -29 33 c-28 30 -36 37 -36
29z"/>
<path d="M5650 11816 c0 -2 8 -10 18 -17 15 -13 16 -12 3 4 -13 16 -21 21 -21
13z"/>
<path d="M5680 11776 c0 -2 8 -10 18 -17 15 -13 16 -12 3 4 -13 16 -21 21 -21
13z"/>
<path d="M5790 11634 c0 -5 7 -18 15 -28 8 -11 15 -16 15 -10 0 5 -7 18 -15
28 -8 11 -15 16 -15 10z"/>
<path d="M7665 10065 c23 -8 83 -10 79 -3 -3 4 -24 8 -47 7 -23 0 -37 -2 -32
-4z"/>
<path d="M7769 10027 c11 -14 13 -45 7 -155 -4 -85 -2 -143 4 -152 7 -10 10
35 10 141 0 137 -2 158 -17 170 -16 13 -17 12 -4 -4z"/>
<path d="M7561 9984 c-16 -37 -9 -39 11 -3 9 16 14 29 9 29 -4 0 -13 -12 -20
-26z"/>
<path d="M7531 9909 c-6 -18 -11 -39 -10 -48 0 -9 7 4 14 29 16 51 13 67 -4
19z"/>
<path d="M7831 9434 c0 -11 3 -14 6 -6 3 7 2 16 -1 19 -3 4 -6 -2 -5 -13z"/>
<path d="M7841 9400 c0 -8 4 -24 9 -35 5 -13 9 -14 9 -5 0 8 -4 24 -9 35 -5
13 -9 14 -9 5z"/>
<path d="M7866 9320 c2 -14 9 -51 14 -84 5 -32 11 -61 14 -64 13 -13 3 67 -14
118 -11 30 -17 44 -14 30z"/>
<path d="M8611 7434 c-1 -20 5 -34 15 -38 9 -3 12 -2 8 5 -3 6 -10 23 -14 37
l-8 27 -1 -31z"/>
<path d="M8660 7366 c0 -3 9 -10 20 -16 11 -6 20 -8 20 -6 0 3 -9 10 -20 16
-11 6 -20 8 -20 6z"/>
<path d="M8820 7214 c0 -17 27 -37 42 -31 8 4 7 6 -4 6 -9 1 -22 9 -27 19 -6
9 -11 12 -11 6z"/>
<path d="M1094 6855 c3 -49 62 -195 78 -195 14 0 9 19 -24 83 -17 34 -37 85
-45 112 l-13 50 4 -50z"/>
<path d="M1190 6559 c1 -20 34 -91 64 -136 41 -60 31 -13 -15 69 -48 85 -49
86 -49 67z"/>
<path d="M9660 6503 c0 -6 8 -17 18 -24 16 -13 16 -13 2 6 -8 11 -16 22 -17
24 -2 2 -3 0 -3 -6z"/>
<path d="M9770 6285 c0 -5 5 -17 10 -25 5 -8 10 -10 10 -5 0 6 -5 17 -10 25
-5 8 -10 11 -10 5z"/>
</g>
</svg>
